<svg xmlns="http://www.w3.org/2000/svg" width="760" height="300" viewBox="0 0 760 300">
  <rect width="100%" height="100%" fill="#ffffff"/>
  <text x="64" y="20" font-family="Arial" font-size="14" fill="#111827">20260602_051413 / train_R_eps_avg_1</text>
  <line x1="64" y1="258" x2="736" y2="258" stroke="#9ca3af"/>
  <line x1="64" y1="28" x2="64" y2="258" stroke="#9ca3af"/>
  <text x="64" y="288" font-family="Arial" font-size="11" fill="#4b5563">epoch 0 to 999</text>
  <text x="8" y="38" font-family="Arial" font-size="11" fill="#4b5563">1.07e+03</text>
  <text x="8" y="258" font-family="Arial" font-size="11" fill="#4b5563">-1.01e+03</text>
  <polyline fill="none" stroke="#2563eb" stroke-width="2.5" points="64.00,118.13 64.67,110.95 65.35,108.77 66.02,103.83 66.69,93.47 67.36,93.68 68.04,70.81 68.71,88.31 69.38,99.73 70.05,87.30 70.73,77.66 71.40,91.43 72.07,114.02 72.74,101.23 73.42,93.88 74.09,103.64 74.76,92.61 75.44,65.13 76.11,120.91 76.78,93.25 77.45,96.12 78.13,85.58 78.80,81.43 79.47,95.52 80.14,101.31 80.82,81.21 81.49,97.82 82.16,84.73 82.83,101.12 83.51,70.88 84.18,101.44 84.85,88.82 85.53,73.28 86.20,89.73 86.87,108.58 87.54,102.14 88.22,91.74 88.89,102.41 89.56,97.87 90.23,118.50 90.91,83.48 91.58,103.61 92.25,102.34 92.92,96.17 93.60,116.20 94.27,109.43 94.94,112.77 95.62,95.87 96.29,89.62 96.96,116.65 97.63,75.19 98.31,92.53 98.98,79.59 99.65,114.50 100.32,114.35 101.00,78.53 101.67,92.04 102.34,113.57 103.02,74.42 103.69,82.87 104.36,88.37 105.03,49.47 105.71,97.12 106.38,65.90 107.05,102.39 107.72,79.52 108.40,112.45 109.07,72.09 109.74,80.72 110.41,105.54 111.09,94.75 111.76,88.76 112.43,80.20 113.11,111.78 113.78,76.54 114.45,89.58 115.12,111.76 115.80,94.10 116.47,67.33 117.14,115.66 117.81,105.83 118.49,81.73 119.16,81.51 119.83,83.23 120.50,86.33 121.18,65.07 121.85,96.05 122.52,105.57 123.20,72.31 123.87,82.17 124.54,68.27 125.21,84.54 125.89,79.96 126.56,73.82 127.23,80.87 127.90,82.21 128.58,102.67 129.25,108.41 129.92,95.08 130.59,92.97 131.27,79.33 131.94,77.36 132.61,94.54 133.29,88.81 133.96,104.01 134.63,90.84 135.30,94.56 135.98,76.28 136.65,78.19 137.32,95.08 137.99,97.96 138.67,91.93 139.34,94.27 140.01,97.50 140.68,94.28 141.36,83.54 142.03,96.75 142.70,87.40 143.38,88.31 144.05,116.03 144.72,93.58 145.39,69.98 146.07,100.19 146.74,81.24 147.41,78.76 148.08,81.38 148.76,89.83 149.43,82.99 150.10,77.42 150.77,80.51 151.45,65.28 152.12,84.19 152.79,103.77 153.47,81.88 154.14,94.64 154.81,84.09 155.48,79.52 156.16,88.29 156.83,98.17 157.50,78.66 158.17,75.99 158.85,83.97 159.52,78.42 160.19,91.14 160.86,106.33 161.54,77.03 162.21,85.30 162.88,89.10 163.56,94.69 164.23,93.31 164.90,103.59 165.57,74.98 166.25,86.62 166.92,104.19 167.59,77.89 168.26,84.74 168.94,86.19 169.61,85.25 170.28,84.94 170.95,63.64 171.63,96.04 172.30,95.09 172.97,84.79 173.65,78.26 174.32,74.15 174.99,100.67 175.66,88.82 176.34,101.10 177.01,75.82 177.68,100.54 178.35,95.61 179.03,92.01 179.70,57.98 180.37,101.07 181.05,102.21 181.72,75.11 182.39,96.30 183.06,96.67 183.74,96.24 184.41,97.16 185.08,73.83 185.75,81.03 186.43,64.24 187.10,92.27 187.77,59.50 188.44,90.73 189.12,95.37 189.79,75.12 190.46,51.54 191.14,70.55 191.81,62.32 192.48,79.15 193.15,84.61 193.83,91.68 194.50,86.97 195.17,67.66 195.84,81.99 196.52,90.38 197.19,87.96 197.86,70.33 198.53,89.97 199.21,70.73 199.88,71.78 200.55,89.51 201.23,60.52 201.90,76.30 202.57,92.76 203.24,67.66 203.92,66.82 204.59,73.62 205.26,62.13 205.93,97.38 206.61,70.00 207.28,92.35 207.95,66.20 208.62,79.38 209.30,91.64 209.97,62.84 210.64,78.39 211.32,65.42 211.99,100.30 212.66,75.18 213.33,64.37 214.01,57.80 214.68,92.66 215.35,64.93 216.02,80.67 216.70,84.66 217.37,99.82 218.04,92.81 218.71,86.32 219.39,86.18 220.06,84.68 220.73,95.18 221.41,68.97 222.08,72.86 222.75,82.12 223.42,80.70 224.10,72.54 224.77,88.83 225.44,82.00 226.11,67.81 226.79,79.33 227.46,82.70 228.13,89.16 228.80,58.61 229.48,77.78 230.15,50.64 230.82,94.17 231.50,62.11 232.17,66.77 232.84,96.53 233.51,71.71 234.19,93.69 234.86,67.43 235.53,51.57 236.20,66.92 236.88,94.73 237.55,92.50 238.22,78.87 238.89,90.68 239.57,58.12 240.24,71.01 240.91,52.41 241.59,65.61 242.26,89.12 242.93,66.69 243.60,84.03 244.28,63.43 244.95,61.95 245.62,54.73 246.29,66.27 246.97,70.66 247.64,58.43 248.31,74.32 248.98,63.46 249.66,65.84 250.33,67.47 251.00,86.51 251.68,72.51 252.35,77.95 253.02,86.79 253.69,77.83 254.37,60.69 255.04,78.40 255.71,77.24 256.38,78.93 257.06,102.51 257.73,74.41 258.40,53.02 259.08,85.58 259.75,84.39 260.42,69.90 261.09,61.87 261.77,89.76 262.44,70.93 263.11,48.37 263.78,83.07 264.46,53.71 265.13,94.68 265.80,86.70 266.47,78.89 267.15,59.53 267.82,68.60 268.49,100.59 269.17,93.70 269.84,61.41 270.51,49.23 271.18,58.55 271.86,88.24 272.53,77.79 273.20,72.78 273.87,71.14 274.55,65.60 275.22,96.74 275.89,78.04 276.56,70.73 277.24,60.14 277.91,82.01 278.58,57.38 279.26,81.28 279.93,90.76 280.60,125.58 281.27,83.35 281.95,70.65 282.62,77.92 283.29,87.05 283.96,60.82 284.64,52.76 285.31,92.72 285.98,87.02 286.65,93.02 287.33,66.76 288.00,42.61 288.67,66.86 289.35,46.56 290.02,80.46 290.69,67.82 291.36,52.76 292.04,93.46 292.71,77.04 293.38,71.35 294.05,54.42 294.73,69.72 295.40,60.81 296.07,93.88 296.74,88.57 297.42,57.46 298.09,72.56 298.76,66.63 299.44,68.83 300.11,51.47 300.78,99.69 301.45,106.21 302.13,80.40 302.80,57.77 303.47,77.94 304.14,92.50 304.82,61.53 305.49,76.87 306.16,110.91 306.83,56.18 307.51,51.20 308.18,94.38 308.85,77.19 309.53,56.10 310.20,77.85 310.87,52.80 311.54,47.57 312.22,90.20 312.89,88.48 313.56,81.86 314.23,67.33 314.91,76.07 315.58,88.64 316.25,71.28 316.92,75.46 317.60,85.52 318.27,59.93 318.94,75.11 319.62,64.90 320.29,97.52 320.96,75.61 321.63,64.06 322.31,71.04 322.98,87.40 323.65,66.15 324.32,83.20 325.00,66.07 325.67,60.35 326.34,70.73 327.02,74.66 327.69,83.68 328.36,64.49 329.03,56.87 329.71,72.32 330.38,103.92 331.05,92.78 331.72,93.75 332.40,74.41 333.07,59.56 333.74,93.56 334.41,69.01 335.09,89.00 335.76,87.82 336.43,82.87 337.11,98.90 337.78,98.34 338.45,74.01 339.12,75.67 339.80,58.34 340.47,97.65 341.14,48.90 341.81,91.77 342.49,74.43 343.16,56.38 343.83,58.00 344.50,77.28 345.18,106.93 345.85,80.58 346.52,77.94 347.20,86.39 347.87,91.32 348.54,64.07 349.21,54.46 349.89,76.06 350.56,28.00 351.23,97.01 351.90,61.69 352.58,66.11 353.25,73.73 353.92,124.64 354.59,53.48 355.27,56.29 355.94,59.99 356.61,104.91 357.29,65.61 357.96,91.74 358.63,64.34 359.30,73.50 359.98,91.13 360.65,74.35 361.32,88.73 361.99,85.43 362.67,94.01 363.34,55.53 364.01,70.78 364.68,98.81 365.36,89.96 366.03,70.91 366.70,98.71 367.38,96.82 368.05,95.22 368.72,109.26 369.39,99.23 370.07,104.44 370.74,58.84 371.41,60.07 372.08,88.54 372.76,57.01 373.43,56.36 374.10,100.52 374.77,67.94 375.45,107.22 376.12,88.71 376.79,76.53 377.47,82.63 378.14,119.96 378.81,91.81 379.48,83.83 380.16,93.64 380.83,68.41 381.50,80.94 382.17,81.17 382.85,92.59 383.52,88.33 384.19,89.85 384.86,66.69 385.54,101.23 386.21,111.63 386.88,106.68 387.56,83.75 388.23,101.99 388.90,65.12 389.57,104.81 390.25,81.06 390.92,95.61 391.59,103.32 392.26,77.22 392.94,62.52 393.61,51.10 394.28,89.38 394.95,62.44 395.63,100.19 396.30,57.56 396.97,108.58 397.65,97.30 398.32,92.40 398.99,56.10 399.66,66.78 400.34,92.60 401.01,52.09 401.68,78.26 402.35,97.96 403.03,80.80 403.70,51.78 404.37,82.17 405.05,73.93 405.72,90.88 406.39,49.45 407.06,112.43 407.74,123.12 408.41,69.62 409.08,98.70 409.75,73.45 410.43,78.78 411.10,75.39 411.77,47.69 412.44,81.64 413.12,115.90 413.79,75.56 414.46,92.26 415.14,79.20 415.81,102.01 416.48,96.64 417.15,65.72 417.83,101.78 418.50,91.21 419.17,77.93 419.84,94.84 420.52,78.82 421.19,65.63 421.86,65.30 422.53,114.08 423.21,119.02 423.88,80.69 424.55,72.04 425.23,110.79 425.90,82.87 426.57,85.26 427.24,78.99 427.92,85.44 428.59,59.75 429.26,60.52 429.93,131.19 430.61,102.10 431.28,108.71 431.95,71.66 432.62,134.67 433.30,64.36 433.97,92.63 434.64,102.37 435.32,96.31 435.99,135.06 436.66,67.37 437.33,112.07 438.01,100.76 438.68,98.70 439.35,101.48 440.02,88.27 440.70,101.37 441.37,88.76 442.04,115.62 442.71,43.01 443.39,117.79 444.06,67.54 444.73,117.48 445.41,124.46 446.08,70.09 446.75,98.46 447.42,72.43 448.10,87.83 448.77,106.57 449.44,60.35 450.11,82.23 450.79,77.16 451.46,84.33 452.13,126.47 452.80,94.72 453.48,125.12 454.15,96.85 454.82,106.71 455.50,103.12 456.17,83.93 456.84,81.85 457.51,118.17 458.19,104.47 458.86,78.04 459.53,122.74 460.20,105.93 460.88,106.32 461.55,114.89 462.22,92.02 462.89,73.64 463.57,100.73 464.24,114.23 464.91,82.46 465.59,79.62 466.26,107.97 466.93,98.84 467.60,93.25 468.28,77.16 468.95,107.27 469.62,113.05 470.29,95.43 470.97,96.01 471.64,102.05 472.31,130.94 472.98,116.29 473.66,137.08 474.33,97.13 475.00,114.49 475.68,86.89 476.35,123.12 477.02,102.78 477.69,144.78 478.37,106.94 479.04,128.28 479.71,91.41 480.38,88.01 481.06,109.30 481.73,123.64 482.40,96.46 483.08,65.61 483.75,109.70 484.42,74.08 485.09,98.70 485.77,86.71 486.44,116.83 487.11,100.78 487.78,122.38 488.46,60.51 489.13,104.24 489.80,107.97 490.47,94.19 491.15,121.12 491.82,88.23 492.49,109.19 493.17,115.53 493.84,108.69 494.51,84.45 495.18,73.66 495.86,150.44 496.53,79.72 497.20,124.17 497.87,98.81 498.55,90.65 499.22,121.97 499.89,105.90 500.56,124.19 501.24,129.42 501.91,70.44 502.58,85.98 503.26,123.38 503.93,93.27 504.60,77.79 505.27,87.64 505.95,119.09 506.62,157.19 507.29,119.75 507.96,100.32 508.64,100.37 509.31,127.29 509.98,105.38 510.65,139.78 511.33,113.02 512.00,143.50 512.67,134.10 513.35,120.50 514.02,131.56 514.69,94.58 515.36,135.88 516.04,116.75 516.71,101.61 517.38,126.62 518.05,135.22 518.73,100.12 519.40,110.49 520.07,97.70 520.74,120.60 521.42,123.41 522.09,114.87 522.76,122.91 523.44,97.49 524.11,114.38 524.78,84.98 525.45,95.85 526.13,119.42 526.80,103.81 527.47,109.14 528.14,117.42 528.82,75.78 529.49,109.37 530.16,117.29 530.83,105.54 531.51,84.74 532.18,113.94 532.85,73.18 533.53,107.31 534.20,93.47 534.87,105.77 535.54,146.64 536.22,110.33 536.89,93.39 537.56,146.22 538.23,107.55 538.91,111.95 539.58,77.67 540.25,111.03 540.92,119.97 541.60,127.83 542.27,125.42 542.94,89.15 543.62,106.81 544.29,121.22 544.96,113.77 545.63,102.13 546.31,152.00 546.98,158.43 547.65,127.43 548.32,105.97 549.00,110.71 549.67,138.73 550.34,104.79 551.02,139.21 551.69,105.94 552.36,68.24 553.03,127.96 553.71,83.77 554.38,106.31 555.05,148.24 555.72,79.44 556.40,106.96 557.07,94.65 557.74,118.04 558.41,115.75 559.09,121.18 559.76,74.08 560.43,111.82 561.11,114.87 561.78,101.36 562.45,124.07 563.12,88.24 563.80,93.74 564.47,139.10 565.14,111.46 565.81,104.27 566.49,160.39 567.16,135.32 567.83,94.60 568.50,119.29 569.18,111.09 569.85,107.08 570.52,101.30 571.20,90.94 571.87,106.01 572.54,131.31 573.21,124.07 573.89,116.09 574.56,169.27 575.23,94.98 575.90,127.40 576.58,156.68 577.25,105.90 577.92,125.07 578.59,136.62 579.27,146.40 579.94,137.34 580.61,144.21 581.29,131.28 581.96,91.95 582.63,124.23 583.30,139.94 583.98,101.02 584.65,164.57 585.32,101.18 585.99,114.62 586.67,72.75 587.34,91.40 588.01,128.79 588.68,141.77 589.36,141.53 590.03,91.54 590.70,119.49 591.38,99.82 592.05,126.29 592.72,91.30 593.39,133.92 594.07,132.74 594.74,153.92 595.41,167.15 596.08,157.78 596.76,139.98 597.43,157.16 598.10,145.90 598.77,143.73 599.45,107.83 600.12,158.72 600.79,110.68 601.47,162.07 602.14,99.77 602.81,111.52 603.48,118.27 604.16,106.21 604.83,158.56 605.50,138.96 606.17,132.46 606.85,189.18 607.52,110.71 608.19,146.50 608.86,114.55 609.54,140.18 610.21,149.80 610.88,130.00 611.56,106.25 612.23,140.79 612.90,155.86 613.57,124.13 614.25,134.06 614.92,125.36 615.59,115.76 616.26,138.89 616.94,184.16 617.61,178.27 618.28,156.08 618.95,107.76 619.63,178.11 620.30,187.43 620.97,127.40 621.65,155.26 622.32,105.81 622.99,137.94 623.66,133.50 624.34,175.31 625.01,136.24 625.68,78.93 626.35,165.36 627.03,175.69 627.70,139.06 628.37,146.22 629.05,151.05 629.72,99.43 630.39,169.10 631.06,168.84 631.74,133.48 632.41,141.96 633.08,143.10 633.75,166.70 634.43,146.70 635.10,128.97 635.77,168.93 636.44,107.92 637.12,129.76 637.79,167.26 638.46,136.39 639.14,153.43 639.81,113.95 640.48,164.42 641.15,156.21 641.83,144.20 642.50,154.21 643.17,129.04 643.84,146.60 644.52,124.90 645.19,134.67 645.86,172.23 646.53,173.83 647.21,157.75 647.88,152.29 648.55,170.94 649.23,162.78 649.90,109.90 650.57,173.98 651.24,187.02 651.92,176.53 652.59,155.96 653.26,159.49 653.93,145.53 654.61,133.82 655.28,151.51 655.95,123.73 656.62,132.81 657.30,172.27 657.97,119.16 658.64,111.97 659.32,184.23 659.99,116.28 660.66,129.53 661.33,213.97 662.01,109.89 662.68,154.42 663.35,106.78 664.02,137.11 664.70,160.61 665.37,127.02 666.04,155.94 666.71,145.23 667.39,142.02 668.06,133.82 668.73,137.12 669.41,168.33 670.08,169.85 670.75,145.39 671.42,171.68 672.10,152.31 672.77,139.85 673.44,148.59 674.11,114.14 674.79,166.25 675.46,102.82 676.13,122.70 676.80,127.84 677.48,93.71 678.15,177.53 678.82,176.15 679.50,163.72 680.17,128.39 680.84,185.40 681.51,105.40 682.19,156.87 682.86,133.64 683.53,178.22 684.20,147.44 684.88,145.88 685.55,159.07 686.22,139.98 686.89,130.07 687.57,178.75 688.24,229.76 688.91,178.84 689.59,178.99 690.26,171.20 690.93,159.92 691.60,153.31 692.28,156.55 692.95,175.17 693.62,145.58 694.29,175.01 694.97,165.28 695.64,217.03 696.31,156.09 696.98,155.84 697.66,193.16 698.33,175.61 699.00,173.86 699.68,171.91 700.35,169.53 701.02,171.37 701.69,179.95 702.37,180.95 703.04,208.01 703.71,173.01 704.38,160.68 705.06,163.61 705.73,162.13 706.40,152.17 707.08,199.01 707.75,140.46 708.42,171.23 709.09,176.05 709.77,184.03 710.44,219.24 711.11,139.16 711.78,107.14 712.46,140.31 713.13,135.08 713.80,168.95 714.47,165.65 715.15,188.08 715.82,142.33 716.49,163.77 717.17,148.33 717.84,153.89 718.51,170.48 719.18,118.25 719.86,204.65 720.53,175.01 721.20,172.57 721.87,160.78 722.55,211.99 723.22,200.44 723.89,157.23 724.56,165.21 725.24,145.62 725.91,161.13 726.58,170.83 727.26,163.03 727.93,187.66 728.60,129.90 729.27,155.15 729.95,187.67 730.62,170.26 731.29,193.01 731.96,144.22 732.64,179.71 733.31,235.13 733.98,114.53 734.65,258.00 735.33,151.50 736.00,201.53"/>
  <circle cx="64.00" cy="118.13" r="3.5" fill="#2563eb"/>
<circle cx="64.67" cy="110.95" r="3.5" fill="#2563eb"/>
<circle cx="65.35" cy="108.77" r="3.5" fill="#2563eb"/>
<circle cx="66.02" cy="103.83" r="3.5" fill="#2563eb"/>
<circle cx="66.69" cy="93.47" r="3.5" fill="#2563eb"/>
<circle cx="67.36" cy="93.68" r="3.5" fill="#2563eb"/>
<circle cx="68.04" cy="70.81" r="3.5" fill="#2563eb"/>
<circle cx="68.71" cy="88.31" r="3.5" fill="#2563eb"/>
<circle cx="69.38" cy="99.73" r="3.5" fill="#2563eb"/>
<circle cx="70.05" cy="87.30" r="3.5" fill="#2563eb"/>
<circle cx="70.73" cy="77.66" r="3.5" fill="#2563eb"/>
<circle cx="71.40" cy="91.43" r="3.5" fill="#2563eb"/>
<circle cx="72.07" cy="114.02" r="3.5" fill="#2563eb"/>
<circle cx="72.74" cy="101.23" r="3.5" fill="#2563eb"/>
<circle cx="73.42" cy="93.88" r="3.5" fill="#2563eb"/>
<circle cx="74.09" cy="103.64" r="3.5" fill="#2563eb"/>
<circle cx="74.76" cy="92.61" r="3.5" fill="#2563eb"/>
<circle cx="75.44" cy="65.13" r="3.5" fill="#2563eb"/>
<circle cx="76.11" cy="120.91" r="3.5" fill="#2563eb"/>
<circle cx="76.78" cy="93.25" r="3.5" fill="#2563eb"/>
<circle cx="77.45" cy="96.12" r="3.5" fill="#2563eb"/>
<circle cx="78.13" cy="85.58" r="3.5" fill="#2563eb"/>
<circle cx="78.80" cy="81.43" r="3.5" fill="#2563eb"/>
<circle cx="79.47" cy="95.52" r="3.5" fill="#2563eb"/>
<circle cx="80.14" cy="101.31" r="3.5" fill="#2563eb"/>
<circle cx="80.82" cy="81.21" r="3.5" fill="#2563eb"/>
<circle cx="81.49" cy="97.82" r="3.5" fill="#2563eb"/>
<circle cx="82.16" cy="84.73" r="3.5" fill="#2563eb"/>
<circle cx="82.83" cy="101.12" r="3.5" fill="#2563eb"/>
<circle cx="83.51" cy="70.88" r="3.5" fill="#2563eb"/>
<circle cx="84.18" cy="101.44" r="3.5" fill="#2563eb"/>
<circle cx="84.85" cy="88.82" r="3.5" fill="#2563eb"/>
<circle cx="85.53" cy="73.28" r="3.5" fill="#2563eb"/>
<circle cx="86.20" cy="89.73" r="3.5" fill="#2563eb"/>
<circle cx="86.87" cy="108.58" r="3.5" fill="#2563eb"/>
<circle cx="87.54" cy="102.14" r="3.5" fill="#2563eb"/>
<circle cx="88.22" cy="91.74" r="3.5" fill="#2563eb"/>
<circle cx="88.89" cy="102.41" r="3.5" fill="#2563eb"/>
<circle cx="89.56" cy="97.87" r="3.5" fill="#2563eb"/>
<circle cx="90.23" cy="118.50" r="3.5" fill="#2563eb"/>
<circle cx="90.91" cy="83.48" r="3.5" fill="#2563eb"/>
<circle cx="91.58" cy="103.61" r="3.5" fill="#2563eb"/>
<circle cx="92.25" cy="102.34" r="3.5" fill="#2563eb"/>
<circle cx="92.92" cy="96.17" r="3.5" fill="#2563eb"/>
<circle cx="93.60" cy="116.20" r="3.5" fill="#2563eb"/>
<circle cx="94.27" cy="109.43" r="3.5" fill="#2563eb"/>
<circle cx="94.94" cy="112.77" r="3.5" fill="#2563eb"/>
<circle cx="95.62" cy="95.87" r="3.5" fill="#2563eb"/>
<circle cx="96.29" cy="89.62" r="3.5" fill="#2563eb"/>
<circle cx="96.96" cy="116.65" r="3.5" fill="#2563eb"/>
<circle cx="97.63" cy="75.19" r="3.5" fill="#2563eb"/>
<circle cx="98.31" cy="92.53" r="3.5" fill="#2563eb"/>
<circle cx="98.98" cy="79.59" r="3.5" fill="#2563eb"/>
<circle cx="99.65" cy="114.50" r="3.5" fill="#2563eb"/>
<circle cx="100.32" cy="114.35" r="3.5" fill="#2563eb"/>
<circle cx="101.00" cy="78.53" r="3.5" fill="#2563eb"/>
<circle cx="101.67" cy="92.04" r="3.5" fill="#2563eb"/>
<circle cx="102.34" cy="113.57" r="3.5" fill="#2563eb"/>
<circle cx="103.02" cy="74.42" r="3.5" fill="#2563eb"/>
<circle cx="103.69" cy="82.87" r="3.5" fill="#2563eb"/>
<circle cx="104.36" cy="88.37" r="3.5" fill="#2563eb"/>
<circle cx="105.03" cy="49.47" r="3.5" fill="#2563eb"/>
<circle cx="105.71" cy="97.12" r="3.5" fill="#2563eb"/>
<circle cx="106.38" cy="65.90" r="3.5" fill="#2563eb"/>
<circle cx="107.05" cy="102.39" r="3.5" fill="#2563eb"/>
<circle cx="107.72" cy="79.52" r="3.5" fill="#2563eb"/>
<circle cx="108.40" cy="112.45" r="3.5" fill="#2563eb"/>
<circle cx="109.07" cy="72.09" r="3.5" fill="#2563eb"/>
<circle cx="109.74" cy="80.72" r="3.5" fill="#2563eb"/>
<circle cx="110.41" cy="105.54" r="3.5" fill="#2563eb"/>
<circle cx="111.09" cy="94.75" r="3.5" fill="#2563eb"/>
<circle cx="111.76" cy="88.76" r="3.5" fill="#2563eb"/>
<circle cx="112.43" cy="80.20" r="3.5" fill="#2563eb"/>
<circle cx="113.11" cy="111.78" r="3.5" fill="#2563eb"/>
<circle cx="113.78" cy="76.54" r="3.5" fill="#2563eb"/>
<circle cx="114.45" cy="89.58" r="3.5" fill="#2563eb"/>
<circle cx="115.12" cy="111.76" r="3.5" fill="#2563eb"/>
<circle cx="115.80" cy="94.10" r="3.5" fill="#2563eb"/>
<circle cx="116.47" cy="67.33" r="3.5" fill="#2563eb"/>
<circle cx="117.14" cy="115.66" r="3.5" fill="#2563eb"/>
<circle cx="117.81" cy="105.83" r="3.5" fill="#2563eb"/>
<circle cx="118.49" cy="81.73" r="3.5" fill="#2563eb"/>
<circle cx="119.16" cy="81.51" r="3.5" fill="#2563eb"/>
<circle cx="119.83" cy="83.23" r="3.5" fill="#2563eb"/>
<circle cx="120.50" cy="86.33" r="3.5" fill="#2563eb"/>
<circle cx="121.18" cy="65.07" r="3.5" fill="#2563eb"/>
<circle cx="121.85" cy="96.05" r="3.5" fill="#2563eb"/>
<circle cx="122.52" cy="105.57" r="3.5" fill="#2563eb"/>
<circle cx="123.20" cy="72.31" r="3.5" fill="#2563eb"/>
<circle cx="123.87" cy="82.17" r="3.5" fill="#2563eb"/>
<circle cx="124.54" cy="68.27" r="3.5" fill="#2563eb"/>
<circle cx="125.21" cy="84.54" r="3.5" fill="#2563eb"/>
<circle cx="125.89" cy="79.96" r="3.5" fill="#2563eb"/>
<circle cx="126.56" cy="73.82" r="3.5" fill="#2563eb"/>
<circle cx="127.23" cy="80.87" r="3.5" fill="#2563eb"/>
<circle cx="127.90" cy="82.21" r="3.5" fill="#2563eb"/>
<circle cx="128.58" cy="102.67" r="3.5" fill="#2563eb"/>
<circle cx="129.25" cy="108.41" r="3.5" fill="#2563eb"/>
<circle cx="129.92" cy="95.08" r="3.5" fill="#2563eb"/>
<circle cx="130.59" cy="92.97" r="3.5" fill="#2563eb"/>
<circle cx="131.27" cy="79.33" r="3.5" fill="#2563eb"/>
<circle cx="131.94" cy="77.36" r="3.5" fill="#2563eb"/>
<circle cx="132.61" cy="94.54" r="3.5" fill="#2563eb"/>
<circle cx="133.29" cy="88.81" r="3.5" fill="#2563eb"/>
<circle cx="133.96" cy="104.01" r="3.5" fill="#2563eb"/>
<circle cx="134.63" cy="90.84" r="3.5" fill="#2563eb"/>
<circle cx="135.30" cy="94.56" r="3.5" fill="#2563eb"/>
<circle cx="135.98" cy="76.28" r="3.5" fill="#2563eb"/>
<circle cx="136.65" cy="78.19" r="3.5" fill="#2563eb"/>
<circle cx="137.32" cy="95.08" r="3.5" fill="#2563eb"/>
<circle cx="137.99" cy="97.96" r="3.5" fill="#2563eb"/>
<circle cx="138.67" cy="91.93" r="3.5" fill="#2563eb"/>
<circle cx="139.34" cy="94.27" r="3.5" fill="#2563eb"/>
<circle cx="140.01" cy="97.50" r="3.5" fill="#2563eb"/>
<circle cx="140.68" cy="94.28" r="3.5" fill="#2563eb"/>
<circle cx="141.36" cy="83.54" r="3.5" fill="#2563eb"/>
<circle cx="142.03" cy="96.75" r="3.5" fill="#2563eb"/>
<circle cx="142.70" cy="87.40" r="3.5" fill="#2563eb"/>
<circle cx="143.38" cy="88.31" r="3.5" fill="#2563eb"/>
<circle cx="144.05" cy="116.03" r="3.5" fill="#2563eb"/>
<circle cx="144.72" cy="93.58" r="3.5" fill="#2563eb"/>
<circle cx="145.39" cy="69.98" r="3.5" fill="#2563eb"/>
<circle cx="146.07" cy="100.19" r="3.5" fill="#2563eb"/>
<circle cx="146.74" cy="81.24" r="3.5" fill="#2563eb"/>
<circle cx="147.41" cy="78.76" r="3.5" fill="#2563eb"/>
<circle cx="148.08" cy="81.38" r="3.5" fill="#2563eb"/>
<circle cx="148.76" cy="89.83" r="3.5" fill="#2563eb"/>
<circle cx="149.43" cy="82.99" r="3.5" fill="#2563eb"/>
<circle cx="150.10" cy="77.42" r="3.5" fill="#2563eb"/>
<circle cx="150.77" cy="80.51" r="3.5" fill="#2563eb"/>
<circle cx="151.45" cy="65.28" r="3.5" fill="#2563eb"/>
<circle cx="152.12" cy="84.19" r="3.5" fill="#2563eb"/>
<circle cx="152.79" cy="103.77" r="3.5" fill="#2563eb"/>
<circle cx="153.47" cy="81.88" r="3.5" fill="#2563eb"/>
<circle cx="154.14" cy="94.64" r="3.5" fill="#2563eb"/>
<circle cx="154.81" cy="84.09" r="3.5" fill="#2563eb"/>
<circle cx="155.48" cy="79.52" r="3.5" fill="#2563eb"/>
<circle cx="156.16" cy="88.29" r="3.5" fill="#2563eb"/>
<circle cx="156.83" cy="98.17" r="3.5" fill="#2563eb"/>
<circle cx="157.50" cy="78.66" r="3.5" fill="#2563eb"/>
<circle cx="158.17" cy="75.99" r="3.5" fill="#2563eb"/>
<circle cx="158.85" cy="83.97" r="3.5" fill="#2563eb"/>
<circle cx="159.52" cy="78.42" r="3.5" fill="#2563eb"/>
<circle cx="160.19" cy="91.14" r="3.5" fill="#2563eb"/>
<circle cx="160.86" cy="106.33" r="3.5" fill="#2563eb"/>
<circle cx="161.54" cy="77.03" r="3.5" fill="#2563eb"/>
<circle cx="162.21" cy="85.30" r="3.5" fill="#2563eb"/>
<circle cx="162.88" cy="89.10" r="3.5" fill="#2563eb"/>
<circle cx="163.56" cy="94.69" r="3.5" fill="#2563eb"/>
<circle cx="164.23" cy="93.31" r="3.5" fill="#2563eb"/>
<circle cx="164.90" cy="103.59" r="3.5" fill="#2563eb"/>
<circle cx="165.57" cy="74.98" r="3.5" fill="#2563eb"/>
<circle cx="166.25" cy="86.62" r="3.5" fill="#2563eb"/>
<circle cx="166.92" cy="104.19" r="3.5" fill="#2563eb"/>
<circle cx="167.59" cy="77.89" r="3.5" fill="#2563eb"/>
<circle cx="168.26" cy="84.74" r="3.5" fill="#2563eb"/>
<circle cx="168.94" cy="86.19" r="3.5" fill="#2563eb"/>
<circle cx="169.61" cy="85.25" r="3.5" fill="#2563eb"/>
<circle cx="170.28" cy="84.94" r="3.5" fill="#2563eb"/>
<circle cx="170.95" cy="63.64" r="3.5" fill="#2563eb"/>
<circle cx="171.63" cy="96.04" r="3.5" fill="#2563eb"/>
<circle cx="172.30" cy="95.09" r="3.5" fill="#2563eb"/>
<circle cx="172.97" cy="84.79" r="3.5" fill="#2563eb"/>
<circle cx="173.65" cy="78.26" r="3.5" fill="#2563eb"/>
<circle cx="174.32" cy="74.15" r="3.5" fill="#2563eb"/>
<circle cx="174.99" cy="100.67" r="3.5" fill="#2563eb"/>
<circle cx="175.66" cy="88.82" r="3.5" fill="#2563eb"/>
<circle cx="176.34" cy="101.10" r="3.5" fill="#2563eb"/>
<circle cx="177.01" cy="75.82" r="3.5" fill="#2563eb"/>
<circle cx="177.68" cy="100.54" r="3.5" fill="#2563eb"/>
<circle cx="178.35" cy="95.61" r="3.5" fill="#2563eb"/>
<circle cx="179.03" cy="92.01" r="3.5" fill="#2563eb"/>
<circle cx="179.70" cy="57.98" r="3.5" fill="#2563eb"/>
<circle cx="180.37" cy="101.07" r="3.5" fill="#2563eb"/>
<circle cx="181.05" cy="102.21" r="3.5" fill="#2563eb"/>
<circle cx="181.72" cy="75.11" r="3.5" fill="#2563eb"/>
<circle cx="182.39" cy="96.30" r="3.5" fill="#2563eb"/>
<circle cx="183.06" cy="96.67" r="3.5" fill="#2563eb"/>
<circle cx="183.74" cy="96.24" r="3.5" fill="#2563eb"/>
<circle cx="184.41" cy="97.16" r="3.5" fill="#2563eb"/>
<circle cx="185.08" cy="73.83" r="3.5" fill="#2563eb"/>
<circle cx="185.75" cy="81.03" r="3.5" fill="#2563eb"/>
<circle cx="186.43" cy="64.24" r="3.5" fill="#2563eb"/>
<circle cx="187.10" cy="92.27" r="3.5" fill="#2563eb"/>
<circle cx="187.77" cy="59.50" r="3.5" fill="#2563eb"/>
<circle cx="188.44" cy="90.73" r="3.5" fill="#2563eb"/>
<circle cx="189.12" cy="95.37" r="3.5" fill="#2563eb"/>
<circle cx="189.79" cy="75.12" r="3.5" fill="#2563eb"/>
<circle cx="190.46" cy="51.54" r="3.5" fill="#2563eb"/>
<circle cx="191.14" cy="70.55" r="3.5" fill="#2563eb"/>
<circle cx="191.81" cy="62.32" r="3.5" fill="#2563eb"/>
<circle cx="192.48" cy="79.15" r="3.5" fill="#2563eb"/>
<circle cx="193.15" cy="84.61" r="3.5" fill="#2563eb"/>
<circle cx="193.83" cy="91.68" r="3.5" fill="#2563eb"/>
<circle cx="194.50" cy="86.97" r="3.5" fill="#2563eb"/>
<circle cx="195.17" cy="67.66" r="3.5" fill="#2563eb"/>
<circle cx="195.84" cy="81.99" r="3.5" fill="#2563eb"/>
<circle cx="196.52" cy="90.38" r="3.5" fill="#2563eb"/>
<circle cx="197.19" cy="87.96" r="3.5" fill="#2563eb"/>
<circle cx="197.86" cy="70.33" r="3.5" fill="#2563eb"/>
<circle cx="198.53" cy="89.97" r="3.5" fill="#2563eb"/>
<circle cx="199.21" cy="70.73" r="3.5" fill="#2563eb"/>
<circle cx="199.88" cy="71.78" r="3.5" fill="#2563eb"/>
<circle cx="200.55" cy="89.51" r="3.5" fill="#2563eb"/>
<circle cx="201.23" cy="60.52" r="3.5" fill="#2563eb"/>
<circle cx="201.90" cy="76.30" r="3.5" fill="#2563eb"/>
<circle cx="202.57" cy="92.76" r="3.5" fill="#2563eb"/>
<circle cx="203.24" cy="67.66" r="3.5" fill="#2563eb"/>
<circle cx="203.92" cy="66.82" r="3.5" fill="#2563eb"/>
<circle cx="204.59" cy="73.62" r="3.5" fill="#2563eb"/>
<circle cx="205.26" cy="62.13" r="3.5" fill="#2563eb"/>
<circle cx="205.93" cy="97.38" r="3.5" fill="#2563eb"/>
<circle cx="206.61" cy="70.00" r="3.5" fill="#2563eb"/>
<circle cx="207.28" cy="92.35" r="3.5" fill="#2563eb"/>
<circle cx="207.95" cy="66.20" r="3.5" fill="#2563eb"/>
<circle cx="208.62" cy="79.38" r="3.5" fill="#2563eb"/>
<circle cx="209.30" cy="91.64" r="3.5" fill="#2563eb"/>
<circle cx="209.97" cy="62.84" r="3.5" fill="#2563eb"/>
<circle cx="210.64" cy="78.39" r="3.5" fill="#2563eb"/>
<circle cx="211.32" cy="65.42" r="3.5" fill="#2563eb"/>
<circle cx="211.99" cy="100.30" r="3.5" fill="#2563eb"/>
<circle cx="212.66" cy="75.18" r="3.5" fill="#2563eb"/>
<circle cx="213.33" cy="64.37" r="3.5" fill="#2563eb"/>
<circle cx="214.01" cy="57.80" r="3.5" fill="#2563eb"/>
<circle cx="214.68" cy="92.66" r="3.5" fill="#2563eb"/>
<circle cx="215.35" cy="64.93" r="3.5" fill="#2563eb"/>
<circle cx="216.02" cy="80.67" r="3.5" fill="#2563eb"/>
<circle cx="216.70" cy="84.66" r="3.5" fill="#2563eb"/>
<circle cx="217.37" cy="99.82" r="3.5" fill="#2563eb"/>
<circle cx="218.04" cy="92.81" r="3.5" fill="#2563eb"/>
<circle cx="218.71" cy="86.32" r="3.5" fill="#2563eb"/>
<circle cx="219.39" cy="86.18" r="3.5" fill="#2563eb"/>
<circle cx="220.06" cy="84.68" r="3.5" fill="#2563eb"/>
<circle cx="220.73" cy="95.18" r="3.5" fill="#2563eb"/>
<circle cx="221.41" cy="68.97" r="3.5" fill="#2563eb"/>
<circle cx="222.08" cy="72.86" r="3.5" fill="#2563eb"/>
<circle cx="222.75" cy="82.12" r="3.5" fill="#2563eb"/>
<circle cx="223.42" cy="80.70" r="3.5" fill="#2563eb"/>
<circle cx="224.10" cy="72.54" r="3.5" fill="#2563eb"/>
<circle cx="224.77" cy="88.83" r="3.5" fill="#2563eb"/>
<circle cx="225.44" cy="82.00" r="3.5" fill="#2563eb"/>
<circle cx="226.11" cy="67.81" r="3.5" fill="#2563eb"/>
<circle cx="226.79" cy="79.33" r="3.5" fill="#2563eb"/>
<circle cx="227.46" cy="82.70" r="3.5" fill="#2563eb"/>
<circle cx="228.13" cy="89.16" r="3.5" fill="#2563eb"/>
<circle cx="228.80" cy="58.61" r="3.5" fill="#2563eb"/>
<circle cx="229.48" cy="77.78" r="3.5" fill="#2563eb"/>
<circle cx="230.15" cy="50.64" r="3.5" fill="#2563eb"/>
<circle cx="230.82" cy="94.17" r="3.5" fill="#2563eb"/>
<circle cx="231.50" cy="62.11" r="3.5" fill="#2563eb"/>
<circle cx="232.17" cy="66.77" r="3.5" fill="#2563eb"/>
<circle cx="232.84" cy="96.53" r="3.5" fill="#2563eb"/>
<circle cx="233.51" cy="71.71" r="3.5" fill="#2563eb"/>
<circle cx="234.19" cy="93.69" r="3.5" fill="#2563eb"/>
<circle cx="234.86" cy="67.43" r="3.5" fill="#2563eb"/>
<circle cx="235.53" cy="51.57" r="3.5" fill="#2563eb"/>
<circle cx="236.20" cy="66.92" r="3.5" fill="#2563eb"/>
<circle cx="236.88" cy="94.73" r="3.5" fill="#2563eb"/>
<circle cx="237.55" cy="92.50" r="3.5" fill="#2563eb"/>
<circle cx="238.22" cy="78.87" r="3.5" fill="#2563eb"/>
<circle cx="238.89" cy="90.68" r="3.5" fill="#2563eb"/>
<circle cx="239.57" cy="58.12" r="3.5" fill="#2563eb"/>
<circle cx="240.24" cy="71.01" r="3.5" fill="#2563eb"/>
<circle cx="240.91" cy="52.41" r="3.5" fill="#2563eb"/>
<circle cx="241.59" cy="65.61" r="3.5" fill="#2563eb"/>
<circle cx="242.26" cy="89.12" r="3.5" fill="#2563eb"/>
<circle cx="242.93" cy="66.69" r="3.5" fill="#2563eb"/>
<circle cx="243.60" cy="84.03" r="3.5" fill="#2563eb"/>
<circle cx="244.28" cy="63.43" r="3.5" fill="#2563eb"/>
<circle cx="244.95" cy="61.95" r="3.5" fill="#2563eb"/>
<circle cx="245.62" cy="54.73" r="3.5" fill="#2563eb"/>
<circle cx="246.29" cy="66.27" r="3.5" fill="#2563eb"/>
<circle cx="246.97" cy="70.66" r="3.5" fill="#2563eb"/>
<circle cx="247.64" cy="58.43" r="3.5" fill="#2563eb"/>
<circle cx="248.31" cy="74.32" r="3.5" fill="#2563eb"/>
<circle cx="248.98" cy="63.46" r="3.5" fill="#2563eb"/>
<circle cx="249.66" cy="65.84" r="3.5" fill="#2563eb"/>
<circle cx="250.33" cy="67.47" r="3.5" fill="#2563eb"/>
<circle cx="251.00" cy="86.51" r="3.5" fill="#2563eb"/>
<circle cx="251.68" cy="72.51" r="3.5" fill="#2563eb"/>
<circle cx="252.35" cy="77.95" r="3.5" fill="#2563eb"/>
<circle cx="253.02" cy="86.79" r="3.5" fill="#2563eb"/>
<circle cx="253.69" cy="77.83" r="3.5" fill="#2563eb"/>
<circle cx="254.37" cy="60.69" r="3.5" fill="#2563eb"/>
<circle cx="255.04" cy="78.40" r="3.5" fill="#2563eb"/>
<circle cx="255.71" cy="77.24" r="3.5" fill="#2563eb"/>
<circle cx="256.38" cy="78.93" r="3.5" fill="#2563eb"/>
<circle cx="257.06" cy="102.51" r="3.5" fill="#2563eb"/>
<circle cx="257.73" cy="74.41" r="3.5" fill="#2563eb"/>
<circle cx="258.40" cy="53.02" r="3.5" fill="#2563eb"/>
<circle cx="259.08" cy="85.58" r="3.5" fill="#2563eb"/>
<circle cx="259.75" cy="84.39" r="3.5" fill="#2563eb"/>
<circle cx="260.42" cy="69.90" r="3.5" fill="#2563eb"/>
<circle cx="261.09" cy="61.87" r="3.5" fill="#2563eb"/>
<circle cx="261.77" cy="89.76" r="3.5" fill="#2563eb"/>
<circle cx="262.44" cy="70.93" r="3.5" fill="#2563eb"/>
<circle cx="263.11" cy="48.37" r="3.5" fill="#2563eb"/>
<circle cx="263.78" cy="83.07" r="3.5" fill="#2563eb"/>
<circle cx="264.46" cy="53.71" r="3.5" fill="#2563eb"/>
<circle cx="265.13" cy="94.68" r="3.5" fill="#2563eb"/>
<circle cx="265.80" cy="86.70" r="3.5" fill="#2563eb"/>
<circle cx="266.47" cy="78.89" r="3.5" fill="#2563eb"/>
<circle cx="267.15" cy="59.53" r="3.5" fill="#2563eb"/>
<circle cx="267.82" cy="68.60" r="3.5" fill="#2563eb"/>
<circle cx="268.49" cy="100.59" r="3.5" fill="#2563eb"/>
<circle cx="269.17" cy="93.70" r="3.5" fill="#2563eb"/>
<circle cx="269.84" cy="61.41" r="3.5" fill="#2563eb"/>
<circle cx="270.51" cy="49.23" r="3.5" fill="#2563eb"/>
<circle cx="271.18" cy="58.55" r="3.5" fill="#2563eb"/>
<circle cx="271.86" cy="88.24" r="3.5" fill="#2563eb"/>
<circle cx="272.53" cy="77.79" r="3.5" fill="#2563eb"/>
<circle cx="273.20" cy="72.78" r="3.5" fill="#2563eb"/>
<circle cx="273.87" cy="71.14" r="3.5" fill="#2563eb"/>
<circle cx="274.55" cy="65.60" r="3.5" fill="#2563eb"/>
<circle cx="275.22" cy="96.74" r="3.5" fill="#2563eb"/>
<circle cx="275.89" cy="78.04" r="3.5" fill="#2563eb"/>
<circle cx="276.56" cy="70.73" r="3.5" fill="#2563eb"/>
<circle cx="277.24" cy="60.14" r="3.5" fill="#2563eb"/>
<circle cx="277.91" cy="82.01" r="3.5" fill="#2563eb"/>
<circle cx="278.58" cy="57.38" r="3.5" fill="#2563eb"/>
<circle cx="279.26" cy="81.28" r="3.5" fill="#2563eb"/>
<circle cx="279.93" cy="90.76" r="3.5" fill="#2563eb"/>
<circle cx="280.60" cy="125.58" r="3.5" fill="#2563eb"/>
<circle cx="281.27" cy="83.35" r="3.5" fill="#2563eb"/>
<circle cx="281.95" cy="70.65" r="3.5" fill="#2563eb"/>
<circle cx="282.62" cy="77.92" r="3.5" fill="#2563eb"/>
<circle cx="283.29" cy="87.05" r="3.5" fill="#2563eb"/>
<circle cx="283.96" cy="60.82" r="3.5" fill="#2563eb"/>
<circle cx="284.64" cy="52.76" r="3.5" fill="#2563eb"/>
<circle cx="285.31" cy="92.72" r="3.5" fill="#2563eb"/>
<circle cx="285.98" cy="87.02" r="3.5" fill="#2563eb"/>
<circle cx="286.65" cy="93.02" r="3.5" fill="#2563eb"/>
<circle cx="287.33" cy="66.76" r="3.5" fill="#2563eb"/>
<circle cx="288.00" cy="42.61" r="3.5" fill="#2563eb"/>
<circle cx="288.67" cy="66.86" r="3.5" fill="#2563eb"/>
<circle cx="289.35" cy="46.56" r="3.5" fill="#2563eb"/>
<circle cx="290.02" cy="80.46" r="3.5" fill="#2563eb"/>
<circle cx="290.69" cy="67.82" r="3.5" fill="#2563eb"/>
<circle cx="291.36" cy="52.76" r="3.5" fill="#2563eb"/>
<circle cx="292.04" cy="93.46" r="3.5" fill="#2563eb"/>
<circle cx="292.71" cy="77.04" r="3.5" fill="#2563eb"/>
<circle cx="293.38" cy="71.35" r="3.5" fill="#2563eb"/>
<circle cx="294.05" cy="54.42" r="3.5" fill="#2563eb"/>
<circle cx="294.73" cy="69.72" r="3.5" fill="#2563eb"/>
<circle cx="295.40" cy="60.81" r="3.5" fill="#2563eb"/>
<circle cx="296.07" cy="93.88" r="3.5" fill="#2563eb"/>
<circle cx="296.74" cy="88.57" r="3.5" fill="#2563eb"/>
<circle cx="297.42" cy="57.46" r="3.5" fill="#2563eb"/>
<circle cx="298.09" cy="72.56" r="3.5" fill="#2563eb"/>
<circle cx="298.76" cy="66.63" r="3.5" fill="#2563eb"/>
<circle cx="299.44" cy="68.83" r="3.5" fill="#2563eb"/>
<circle cx="300.11" cy="51.47" r="3.5" fill="#2563eb"/>
<circle cx="300.78" cy="99.69" r="3.5" fill="#2563eb"/>
<circle cx="301.45" cy="106.21" r="3.5" fill="#2563eb"/>
<circle cx="302.13" cy="80.40" r="3.5" fill="#2563eb"/>
<circle cx="302.80" cy="57.77" r="3.5" fill="#2563eb"/>
<circle cx="303.47" cy="77.94" r="3.5" fill="#2563eb"/>
<circle cx="304.14" cy="92.50" r="3.5" fill="#2563eb"/>
<circle cx="304.82" cy="61.53" r="3.5" fill="#2563eb"/>
<circle cx="305.49" cy="76.87" r="3.5" fill="#2563eb"/>
<circle cx="306.16" cy="110.91" r="3.5" fill="#2563eb"/>
<circle cx="306.83" cy="56.18" r="3.5" fill="#2563eb"/>
<circle cx="307.51" cy="51.20" r="3.5" fill="#2563eb"/>
<circle cx="308.18" cy="94.38" r="3.5" fill="#2563eb"/>
<circle cx="308.85" cy="77.19" r="3.5" fill="#2563eb"/>
<circle cx="309.53" cy="56.10" r="3.5" fill="#2563eb"/>
<circle cx="310.20" cy="77.85" r="3.5" fill="#2563eb"/>
<circle cx="310.87" cy="52.80" r="3.5" fill="#2563eb"/>
<circle cx="311.54" cy="47.57" r="3.5" fill="#2563eb"/>
<circle cx="312.22" cy="90.20" r="3.5" fill="#2563eb"/>
<circle cx="312.89" cy="88.48" r="3.5" fill="#2563eb"/>
<circle cx="313.56" cy="81.86" r="3.5" fill="#2563eb"/>
<circle cx="314.23" cy="67.33" r="3.5" fill="#2563eb"/>
<circle cx="314.91" cy="76.07" r="3.5" fill="#2563eb"/>
<circle cx="315.58" cy="88.64" r="3.5" fill="#2563eb"/>
<circle cx="316.25" cy="71.28" r="3.5" fill="#2563eb"/>
<circle cx="316.92" cy="75.46" r="3.5" fill="#2563eb"/>
<circle cx="317.60" cy="85.52" r="3.5" fill="#2563eb"/>
<circle cx="318.27" cy="59.93" r="3.5" fill="#2563eb"/>
<circle cx="318.94" cy="75.11" r="3.5" fill="#2563eb"/>
<circle cx="319.62" cy="64.90" r="3.5" fill="#2563eb"/>
<circle cx="320.29" cy="97.52" r="3.5" fill="#2563eb"/>
<circle cx="320.96" cy="75.61" r="3.5" fill="#2563eb"/>
<circle cx="321.63" cy="64.06" r="3.5" fill="#2563eb"/>
<circle cx="322.31" cy="71.04" r="3.5" fill="#2563eb"/>
<circle cx="322.98" cy="87.40" r="3.5" fill="#2563eb"/>
<circle cx="323.65" cy="66.15" r="3.5" fill="#2563eb"/>
<circle cx="324.32" cy="83.20" r="3.5" fill="#2563eb"/>
<circle cx="325.00" cy="66.07" r="3.5" fill="#2563eb"/>
<circle cx="325.67" cy="60.35" r="3.5" fill="#2563eb"/>
<circle cx="326.34" cy="70.73" r="3.5" fill="#2563eb"/>
<circle cx="327.02" cy="74.66" r="3.5" fill="#2563eb"/>
<circle cx="327.69" cy="83.68" r="3.5" fill="#2563eb"/>
<circle cx="328.36" cy="64.49" r="3.5" fill="#2563eb"/>
<circle cx="329.03" cy="56.87" r="3.5" fill="#2563eb"/>
<circle cx="329.71" cy="72.32" r="3.5" fill="#2563eb"/>
<circle cx="330.38" cy="103.92" r="3.5" fill="#2563eb"/>
<circle cx="331.05" cy="92.78" r="3.5" fill="#2563eb"/>
<circle cx="331.72" cy="93.75" r="3.5" fill="#2563eb"/>
<circle cx="332.40" cy="74.41" r="3.5" fill="#2563eb"/>
<circle cx="333.07" cy="59.56" r="3.5" fill="#2563eb"/>
<circle cx="333.74" cy="93.56" r="3.5" fill="#2563eb"/>
<circle cx="334.41" cy="69.01" r="3.5" fill="#2563eb"/>
<circle cx="335.09" cy="89.00" r="3.5" fill="#2563eb"/>
<circle cx="335.76" cy="87.82" r="3.5" fill="#2563eb"/>
<circle cx="336.43" cy="82.87" r="3.5" fill="#2563eb"/>
<circle cx="337.11" cy="98.90" r="3.5" fill="#2563eb"/>
<circle cx="337.78" cy="98.34" r="3.5" fill="#2563eb"/>
<circle cx="338.45" cy="74.01" r="3.5" fill="#2563eb"/>
<circle cx="339.12" cy="75.67" r="3.5" fill="#2563eb"/>
<circle cx="339.80" cy="58.34" r="3.5" fill="#2563eb"/>
<circle cx="340.47" cy="97.65" r="3.5" fill="#2563eb"/>
<circle cx="341.14" cy="48.90" r="3.5" fill="#2563eb"/>
<circle cx="341.81" cy="91.77" r="3.5" fill="#2563eb"/>
<circle cx="342.49" cy="74.43" r="3.5" fill="#2563eb"/>
<circle cx="343.16" cy="56.38" r="3.5" fill="#2563eb"/>
<circle cx="343.83" cy="58.00" r="3.5" fill="#2563eb"/>
<circle cx="344.50" cy="77.28" r="3.5" fill="#2563eb"/>
<circle cx="345.18" cy="106.93" r="3.5" fill="#2563eb"/>
<circle cx="345.85" cy="80.58" r="3.5" fill="#2563eb"/>
<circle cx="346.52" cy="77.94" r="3.5" fill="#2563eb"/>
<circle cx="347.20" cy="86.39" r="3.5" fill="#2563eb"/>
<circle cx="347.87" cy="91.32" r="3.5" fill="#2563eb"/>
<circle cx="348.54" cy="64.07" r="3.5" fill="#2563eb"/>
<circle cx="349.21" cy="54.46" r="3.5" fill="#2563eb"/>
<circle cx="349.89" cy="76.06" r="3.5" fill="#2563eb"/>
<circle cx="350.56" cy="28.00" r="3.5" fill="#2563eb"/>
<circle cx="351.23" cy="97.01" r="3.5" fill="#2563eb"/>
<circle cx="351.90" cy="61.69" r="3.5" fill="#2563eb"/>
<circle cx="352.58" cy="66.11" r="3.5" fill="#2563eb"/>
<circle cx="353.25" cy="73.73" r="3.5" fill="#2563eb"/>
<circle cx="353.92" cy="124.64" r="3.5" fill="#2563eb"/>
<circle cx="354.59" cy="53.48" r="3.5" fill="#2563eb"/>
<circle cx="355.27" cy="56.29" r="3.5" fill="#2563eb"/>
<circle cx="355.94" cy="59.99" r="3.5" fill="#2563eb"/>
<circle cx="356.61" cy="104.91" r="3.5" fill="#2563eb"/>
<circle cx="357.29" cy="65.61" r="3.5" fill="#2563eb"/>
<circle cx="357.96" cy="91.74" r="3.5" fill="#2563eb"/>
<circle cx="358.63" cy="64.34" r="3.5" fill="#2563eb"/>
<circle cx="359.30" cy="73.50" r="3.5" fill="#2563eb"/>
<circle cx="359.98" cy="91.13" r="3.5" fill="#2563eb"/>
<circle cx="360.65" cy="74.35" r="3.5" fill="#2563eb"/>
<circle cx="361.32" cy="88.73" r="3.5" fill="#2563eb"/>
<circle cx="361.99" cy="85.43" r="3.5" fill="#2563eb"/>
<circle cx="362.67" cy="94.01" r="3.5" fill="#2563eb"/>
<circle cx="363.34" cy="55.53" r="3.5" fill="#2563eb"/>
<circle cx="364.01" cy="70.78" r="3.5" fill="#2563eb"/>
<circle cx="364.68" cy="98.81" r="3.5" fill="#2563eb"/>
<circle cx="365.36" cy="89.96" r="3.5" fill="#2563eb"/>
<circle cx="366.03" cy="70.91" r="3.5" fill="#2563eb"/>
<circle cx="366.70" cy="98.71" r="3.5" fill="#2563eb"/>
<circle cx="367.38" cy="96.82" r="3.5" fill="#2563eb"/>
<circle cx="368.05" cy="95.22" r="3.5" fill="#2563eb"/>
<circle cx="368.72" cy="109.26" r="3.5" fill="#2563eb"/>
<circle cx="369.39" cy="99.23" r="3.5" fill="#2563eb"/>
<circle cx="370.07" cy="104.44" r="3.5" fill="#2563eb"/>
<circle cx="370.74" cy="58.84" r="3.5" fill="#2563eb"/>
<circle cx="371.41" cy="60.07" r="3.5" fill="#2563eb"/>
<circle cx="372.08" cy="88.54" r="3.5" fill="#2563eb"/>
<circle cx="372.76" cy="57.01" r="3.5" fill="#2563eb"/>
<circle cx="373.43" cy="56.36" r="3.5" fill="#2563eb"/>
<circle cx="374.10" cy="100.52" r="3.5" fill="#2563eb"/>
<circle cx="374.77" cy="67.94" r="3.5" fill="#2563eb"/>
<circle cx="375.45" cy="107.22" r="3.5" fill="#2563eb"/>
<circle cx="376.12" cy="88.71" r="3.5" fill="#2563eb"/>
<circle cx="376.79" cy="76.53" r="3.5" fill="#2563eb"/>
<circle cx="377.47" cy="82.63" r="3.5" fill="#2563eb"/>
<circle cx="378.14" cy="119.96" r="3.5" fill="#2563eb"/>
<circle cx="378.81" cy="91.81" r="3.5" fill="#2563eb"/>
<circle cx="379.48" cy="83.83" r="3.5" fill="#2563eb"/>
<circle cx="380.16" cy="93.64" r="3.5" fill="#2563eb"/>
<circle cx="380.83" cy="68.41" r="3.5" fill="#2563eb"/>
<circle cx="381.50" cy="80.94" r="3.5" fill="#2563eb"/>
<circle cx="382.17" cy="81.17" r="3.5" fill="#2563eb"/>
<circle cx="382.85" cy="92.59" r="3.5" fill="#2563eb"/>
<circle cx="383.52" cy="88.33" r="3.5" fill="#2563eb"/>
<circle cx="384.19" cy="89.85" r="3.5" fill="#2563eb"/>
<circle cx="384.86" cy="66.69" r="3.5" fill="#2563eb"/>
<circle cx="385.54" cy="101.23" r="3.5" fill="#2563eb"/>
<circle cx="386.21" cy="111.63" r="3.5" fill="#2563eb"/>
<circle cx="386.88" cy="106.68" r="3.5" fill="#2563eb"/>
<circle cx="387.56" cy="83.75" r="3.5" fill="#2563eb"/>
<circle cx="388.23" cy="101.99" r="3.5" fill="#2563eb"/>
<circle cx="388.90" cy="65.12" r="3.5" fill="#2563eb"/>
<circle cx="389.57" cy="104.81" r="3.5" fill="#2563eb"/>
<circle cx="390.25" cy="81.06" r="3.5" fill="#2563eb"/>
<circle cx="390.92" cy="95.61" r="3.5" fill="#2563eb"/>
<circle cx="391.59" cy="103.32" r="3.5" fill="#2563eb"/>
<circle cx="392.26" cy="77.22" r="3.5" fill="#2563eb"/>
<circle cx="392.94" cy="62.52" r="3.5" fill="#2563eb"/>
<circle cx="393.61" cy="51.10" r="3.5" fill="#2563eb"/>
<circle cx="394.28" cy="89.38" r="3.5" fill="#2563eb"/>
<circle cx="394.95" cy="62.44" r="3.5" fill="#2563eb"/>
<circle cx="395.63" cy="100.19" r="3.5" fill="#2563eb"/>
<circle cx="396.30" cy="57.56" r="3.5" fill="#2563eb"/>
<circle cx="396.97" cy="108.58" r="3.5" fill="#2563eb"/>
<circle cx="397.65" cy="97.30" r="3.5" fill="#2563eb"/>
<circle cx="398.32" cy="92.40" r="3.5" fill="#2563eb"/>
<circle cx="398.99" cy="56.10" r="3.5" fill="#2563eb"/>
<circle cx="399.66" cy="66.78" r="3.5" fill="#2563eb"/>
<circle cx="400.34" cy="92.60" r="3.5" fill="#2563eb"/>
<circle cx="401.01" cy="52.09" r="3.5" fill="#2563eb"/>
<circle cx="401.68" cy="78.26" r="3.5" fill="#2563eb"/>
<circle cx="402.35" cy="97.96" r="3.5" fill="#2563eb"/>
<circle cx="403.03" cy="80.80" r="3.5" fill="#2563eb"/>
<circle cx="403.70" cy="51.78" r="3.5" fill="#2563eb"/>
<circle cx="404.37" cy="82.17" r="3.5" fill="#2563eb"/>
<circle cx="405.05" cy="73.93" r="3.5" fill="#2563eb"/>
<circle cx="405.72" cy="90.88" r="3.5" fill="#2563eb"/>
<circle cx="406.39" cy="49.45" r="3.5" fill="#2563eb"/>
<circle cx="407.06" cy="112.43" r="3.5" fill="#2563eb"/>
<circle cx="407.74" cy="123.12" r="3.5" fill="#2563eb"/>
<circle cx="408.41" cy="69.62" r="3.5" fill="#2563eb"/>
<circle cx="409.08" cy="98.70" r="3.5" fill="#2563eb"/>
<circle cx="409.75" cy="73.45" r="3.5" fill="#2563eb"/>
<circle cx="410.43" cy="78.78" r="3.5" fill="#2563eb"/>
<circle cx="411.10" cy="75.39" r="3.5" fill="#2563eb"/>
<circle cx="411.77" cy="47.69" r="3.5" fill="#2563eb"/>
<circle cx="412.44" cy="81.64" r="3.5" fill="#2563eb"/>
<circle cx="413.12" cy="115.90" r="3.5" fill="#2563eb"/>
<circle cx="413.79" cy="75.56" r="3.5" fill="#2563eb"/>
<circle cx="414.46" cy="92.26" r="3.5" fill="#2563eb"/>
<circle cx="415.14" cy="79.20" r="3.5" fill="#2563eb"/>
<circle cx="415.81" cy="102.01" r="3.5" fill="#2563eb"/>
<circle cx="416.48" cy="96.64" r="3.5" fill="#2563eb"/>
<circle cx="417.15" cy="65.72" r="3.5" fill="#2563eb"/>
<circle cx="417.83" cy="101.78" r="3.5" fill="#2563eb"/>
<circle cx="418.50" cy="91.21" r="3.5" fill="#2563eb"/>
<circle cx="419.17" cy="77.93" r="3.5" fill="#2563eb"/>
<circle cx="419.84" cy="94.84" r="3.5" fill="#2563eb"/>
<circle cx="420.52" cy="78.82" r="3.5" fill="#2563eb"/>
<circle cx="421.19" cy="65.63" r="3.5" fill="#2563eb"/>
<circle cx="421.86" cy="65.30" r="3.5" fill="#2563eb"/>
<circle cx="422.53" cy="114.08" r="3.5" fill="#2563eb"/>
<circle cx="423.21" cy="119.02" r="3.5" fill="#2563eb"/>
<circle cx="423.88" cy="80.69" r="3.5" fill="#2563eb"/>
<circle cx="424.55" cy="72.04" r="3.5" fill="#2563eb"/>
<circle cx="425.23" cy="110.79" r="3.5" fill="#2563eb"/>
<circle cx="425.90" cy="82.87" r="3.5" fill="#2563eb"/>
<circle cx="426.57" cy="85.26" r="3.5" fill="#2563eb"/>
<circle cx="427.24" cy="78.99" r="3.5" fill="#2563eb"/>
<circle cx="427.92" cy="85.44" r="3.5" fill="#2563eb"/>
<circle cx="428.59" cy="59.75" r="3.5" fill="#2563eb"/>
<circle cx="429.26" cy="60.52" r="3.5" fill="#2563eb"/>
<circle cx="429.93" cy="131.19" r="3.5" fill="#2563eb"/>
<circle cx="430.61" cy="102.10" r="3.5" fill="#2563eb"/>
<circle cx="431.28" cy="108.71" r="3.5" fill="#2563eb"/>
<circle cx="431.95" cy="71.66" r="3.5" fill="#2563eb"/>
<circle cx="432.62" cy="134.67" r="3.5" fill="#2563eb"/>
<circle cx="433.30" cy="64.36" r="3.5" fill="#2563eb"/>
<circle cx="433.97" cy="92.63" r="3.5" fill="#2563eb"/>
<circle cx="434.64" cy="102.37" r="3.5" fill="#2563eb"/>
<circle cx="435.32" cy="96.31" r="3.5" fill="#2563eb"/>
<circle cx="435.99" cy="135.06" r="3.5" fill="#2563eb"/>
<circle cx="436.66" cy="67.37" r="3.5" fill="#2563eb"/>
<circle cx="437.33" cy="112.07" r="3.5" fill="#2563eb"/>
<circle cx="438.01" cy="100.76" r="3.5" fill="#2563eb"/>
<circle cx="438.68" cy="98.70" r="3.5" fill="#2563eb"/>
<circle cx="439.35" cy="101.48" r="3.5" fill="#2563eb"/>
<circle cx="440.02" cy="88.27" r="3.5" fill="#2563eb"/>
<circle cx="440.70" cy="101.37" r="3.5" fill="#2563eb"/>
<circle cx="441.37" cy="88.76" r="3.5" fill="#2563eb"/>
<circle cx="442.04" cy="115.62" r="3.5" fill="#2563eb"/>
<circle cx="442.71" cy="43.01" r="3.5" fill="#2563eb"/>
<circle cx="443.39" cy="117.79" r="3.5" fill="#2563eb"/>
<circle cx="444.06" cy="67.54" r="3.5" fill="#2563eb"/>
<circle cx="444.73" cy="117.48" r="3.5" fill="#2563eb"/>
<circle cx="445.41" cy="124.46" r="3.5" fill="#2563eb"/>
<circle cx="446.08" cy="70.09" r="3.5" fill="#2563eb"/>
<circle cx="446.75" cy="98.46" r="3.5" fill="#2563eb"/>
<circle cx="447.42" cy="72.43" r="3.5" fill="#2563eb"/>
<circle cx="448.10" cy="87.83" r="3.5" fill="#2563eb"/>
<circle cx="448.77" cy="106.57" r="3.5" fill="#2563eb"/>
<circle cx="449.44" cy="60.35" r="3.5" fill="#2563eb"/>
<circle cx="450.11" cy="82.23" r="3.5" fill="#2563eb"/>
<circle cx="450.79" cy="77.16" r="3.5" fill="#2563eb"/>
<circle cx="451.46" cy="84.33" r="3.5" fill="#2563eb"/>
<circle cx="452.13" cy="126.47" r="3.5" fill="#2563eb"/>
<circle cx="452.80" cy="94.72" r="3.5" fill="#2563eb"/>
<circle cx="453.48" cy="125.12" r="3.5" fill="#2563eb"/>
<circle cx="454.15" cy="96.85" r="3.5" fill="#2563eb"/>
<circle cx="454.82" cy="106.71" r="3.5" fill="#2563eb"/>
<circle cx="455.50" cy="103.12" r="3.5" fill="#2563eb"/>
<circle cx="456.17" cy="83.93" r="3.5" fill="#2563eb"/>
<circle cx="456.84" cy="81.85" r="3.5" fill="#2563eb"/>
<circle cx="457.51" cy="118.17" r="3.5" fill="#2563eb"/>
<circle cx="458.19" cy="104.47" r="3.5" fill="#2563eb"/>
<circle cx="458.86" cy="78.04" r="3.5" fill="#2563eb"/>
<circle cx="459.53" cy="122.74" r="3.5" fill="#2563eb"/>
<circle cx="460.20" cy="105.93" r="3.5" fill="#2563eb"/>
<circle cx="460.88" cy="106.32" r="3.5" fill="#2563eb"/>
<circle cx="461.55" cy="114.89" r="3.5" fill="#2563eb"/>
<circle cx="462.22" cy="92.02" r="3.5" fill="#2563eb"/>
<circle cx="462.89" cy="73.64" r="3.5" fill="#2563eb"/>
<circle cx="463.57" cy="100.73" r="3.5" fill="#2563eb"/>
<circle cx="464.24" cy="114.23" r="3.5" fill="#2563eb"/>
<circle cx="464.91" cy="82.46" r="3.5" fill="#2563eb"/>
<circle cx="465.59" cy="79.62" r="3.5" fill="#2563eb"/>
<circle cx="466.26" cy="107.97" r="3.5" fill="#2563eb"/>
<circle cx="466.93" cy="98.84" r="3.5" fill="#2563eb"/>
<circle cx="467.60" cy="93.25" r="3.5" fill="#2563eb"/>
<circle cx="468.28" cy="77.16" r="3.5" fill="#2563eb"/>
<circle cx="468.95" cy="107.27" r="3.5" fill="#2563eb"/>
<circle cx="469.62" cy="113.05" r="3.5" fill="#2563eb"/>
<circle cx="470.29" cy="95.43" r="3.5" fill="#2563eb"/>
<circle cx="470.97" cy="96.01" r="3.5" fill="#2563eb"/>
<circle cx="471.64" cy="102.05" r="3.5" fill="#2563eb"/>
<circle cx="472.31" cy="130.94" r="3.5" fill="#2563eb"/>
<circle cx="472.98" cy="116.29" r="3.5" fill="#2563eb"/>
<circle cx="473.66" cy="137.08" r="3.5" fill="#2563eb"/>
<circle cx="474.33" cy="97.13" r="3.5" fill="#2563eb"/>
<circle cx="475.00" cy="114.49" r="3.5" fill="#2563eb"/>
<circle cx="475.68" cy="86.89" r="3.5" fill="#2563eb"/>
<circle cx="476.35" cy="123.12" r="3.5" fill="#2563eb"/>
<circle cx="477.02" cy="102.78" r="3.5" fill="#2563eb"/>
<circle cx="477.69" cy="144.78" r="3.5" fill="#2563eb"/>
<circle cx="478.37" cy="106.94" r="3.5" fill="#2563eb"/>
<circle cx="479.04" cy="128.28" r="3.5" fill="#2563eb"/>
<circle cx="479.71" cy="91.41" r="3.5" fill="#2563eb"/>
<circle cx="480.38" cy="88.01" r="3.5" fill="#2563eb"/>
<circle cx="481.06" cy="109.30" r="3.5" fill="#2563eb"/>
<circle cx="481.73" cy="123.64" r="3.5" fill="#2563eb"/>
<circle cx="482.40" cy="96.46" r="3.5" fill="#2563eb"/>
<circle cx="483.08" cy="65.61" r="3.5" fill="#2563eb"/>
<circle cx="483.75" cy="109.70" r="3.5" fill="#2563eb"/>
<circle cx="484.42" cy="74.08" r="3.5" fill="#2563eb"/>
<circle cx="485.09" cy="98.70" r="3.5" fill="#2563eb"/>
<circle cx="485.77" cy="86.71" r="3.5" fill="#2563eb"/>
<circle cx="486.44" cy="116.83" r="3.5" fill="#2563eb"/>
<circle cx="487.11" cy="100.78" r="3.5" fill="#2563eb"/>
<circle cx="487.78" cy="122.38" r="3.5" fill="#2563eb"/>
<circle cx="488.46" cy="60.51" r="3.5" fill="#2563eb"/>
<circle cx="489.13" cy="104.24" r="3.5" fill="#2563eb"/>
<circle cx="489.80" cy="107.97" r="3.5" fill="#2563eb"/>
<circle cx="490.47" cy="94.19" r="3.5" fill="#2563eb"/>
<circle cx="491.15" cy="121.12" r="3.5" fill="#2563eb"/>
<circle cx="491.82" cy="88.23" r="3.5" fill="#2563eb"/>
<circle cx="492.49" cy="109.19" r="3.5" fill="#2563eb"/>
<circle cx="493.17" cy="115.53" r="3.5" fill="#2563eb"/>
<circle cx="493.84" cy="108.69" r="3.5" fill="#2563eb"/>
<circle cx="494.51" cy="84.45" r="3.5" fill="#2563eb"/>
<circle cx="495.18" cy="73.66" r="3.5" fill="#2563eb"/>
<circle cx="495.86" cy="150.44" r="3.5" fill="#2563eb"/>
<circle cx="496.53" cy="79.72" r="3.5" fill="#2563eb"/>
<circle cx="497.20" cy="124.17" r="3.5" fill="#2563eb"/>
<circle cx="497.87" cy="98.81" r="3.5" fill="#2563eb"/>
<circle cx="498.55" cy="90.65" r="3.5" fill="#2563eb"/>
<circle cx="499.22" cy="121.97" r="3.5" fill="#2563eb"/>
<circle cx="499.89" cy="105.90" r="3.5" fill="#2563eb"/>
<circle cx="500.56" cy="124.19" r="3.5" fill="#2563eb"/>
<circle cx="501.24" cy="129.42" r="3.5" fill="#2563eb"/>
<circle cx="501.91" cy="70.44" r="3.5" fill="#2563eb"/>
<circle cx="502.58" cy="85.98" r="3.5" fill="#2563eb"/>
<circle cx="503.26" cy="123.38" r="3.5" fill="#2563eb"/>
<circle cx="503.93" cy="93.27" r="3.5" fill="#2563eb"/>
<circle cx="504.60" cy="77.79" r="3.5" fill="#2563eb"/>
<circle cx="505.27" cy="87.64" r="3.5" fill="#2563eb"/>
<circle cx="505.95" cy="119.09" r="3.5" fill="#2563eb"/>
<circle cx="506.62" cy="157.19" r="3.5" fill="#2563eb"/>
<circle cx="507.29" cy="119.75" r="3.5" fill="#2563eb"/>
<circle cx="507.96" cy="100.32" r="3.5" fill="#2563eb"/>
<circle cx="508.64" cy="100.37" r="3.5" fill="#2563eb"/>
<circle cx="509.31" cy="127.29" r="3.5" fill="#2563eb"/>
<circle cx="509.98" cy="105.38" r="3.5" fill="#2563eb"/>
<circle cx="510.65" cy="139.78" r="3.5" fill="#2563eb"/>
<circle cx="511.33" cy="113.02" r="3.5" fill="#2563eb"/>
<circle cx="512.00" cy="143.50" r="3.5" fill="#2563eb"/>
<circle cx="512.67" cy="134.10" r="3.5" fill="#2563eb"/>
<circle cx="513.35" cy="120.50" r="3.5" fill="#2563eb"/>
<circle cx="514.02" cy="131.56" r="3.5" fill="#2563eb"/>
<circle cx="514.69" cy="94.58" r="3.5" fill="#2563eb"/>
<circle cx="515.36" cy="135.88" r="3.5" fill="#2563eb"/>
<circle cx="516.04" cy="116.75" r="3.5" fill="#2563eb"/>
<circle cx="516.71" cy="101.61" r="3.5" fill="#2563eb"/>
<circle cx="517.38" cy="126.62" r="3.5" fill="#2563eb"/>
<circle cx="518.05" cy="135.22" r="3.5" fill="#2563eb"/>
<circle cx="518.73" cy="100.12" r="3.5" fill="#2563eb"/>
<circle cx="519.40" cy="110.49" r="3.5" fill="#2563eb"/>
<circle cx="520.07" cy="97.70" r="3.5" fill="#2563eb"/>
<circle cx="520.74" cy="120.60" r="3.5" fill="#2563eb"/>
<circle cx="521.42" cy="123.41" r="3.5" fill="#2563eb"/>
<circle cx="522.09" cy="114.87" r="3.5" fill="#2563eb"/>
<circle cx="522.76" cy="122.91" r="3.5" fill="#2563eb"/>
<circle cx="523.44" cy="97.49" r="3.5" fill="#2563eb"/>
<circle cx="524.11" cy="114.38" r="3.5" fill="#2563eb"/>
<circle cx="524.78" cy="84.98" r="3.5" fill="#2563eb"/>
<circle cx="525.45" cy="95.85" r="3.5" fill="#2563eb"/>
<circle cx="526.13" cy="119.42" r="3.5" fill="#2563eb"/>
<circle cx="526.80" cy="103.81" r="3.5" fill="#2563eb"/>
<circle cx="527.47" cy="109.14" r="3.5" fill="#2563eb"/>
<circle cx="528.14" cy="117.42" r="3.5" fill="#2563eb"/>
<circle cx="528.82" cy="75.78" r="3.5" fill="#2563eb"/>
<circle cx="529.49" cy="109.37" r="3.5" fill="#2563eb"/>
<circle cx="530.16" cy="117.29" r="3.5" fill="#2563eb"/>
<circle cx="530.83" cy="105.54" r="3.5" fill="#2563eb"/>
<circle cx="531.51" cy="84.74" r="3.5" fill="#2563eb"/>
<circle cx="532.18" cy="113.94" r="3.5" fill="#2563eb"/>
<circle cx="532.85" cy="73.18" r="3.5" fill="#2563eb"/>
<circle cx="533.53" cy="107.31" r="3.5" fill="#2563eb"/>
<circle cx="534.20" cy="93.47" r="3.5" fill="#2563eb"/>
<circle cx="534.87" cy="105.77" r="3.5" fill="#2563eb"/>
<circle cx="535.54" cy="146.64" r="3.5" fill="#2563eb"/>
<circle cx="536.22" cy="110.33" r="3.5" fill="#2563eb"/>
<circle cx="536.89" cy="93.39" r="3.5" fill="#2563eb"/>
<circle cx="537.56" cy="146.22" r="3.5" fill="#2563eb"/>
<circle cx="538.23" cy="107.55" r="3.5" fill="#2563eb"/>
<circle cx="538.91" cy="111.95" r="3.5" fill="#2563eb"/>
<circle cx="539.58" cy="77.67" r="3.5" fill="#2563eb"/>
<circle cx="540.25" cy="111.03" r="3.5" fill="#2563eb"/>
<circle cx="540.92" cy="119.97" r="3.5" fill="#2563eb"/>
<circle cx="541.60" cy="127.83" r="3.5" fill="#2563eb"/>
<circle cx="542.27" cy="125.42" r="3.5" fill="#2563eb"/>
<circle cx="542.94" cy="89.15" r="3.5" fill="#2563eb"/>
<circle cx="543.62" cy="106.81" r="3.5" fill="#2563eb"/>
<circle cx="544.29" cy="121.22" r="3.5" fill="#2563eb"/>
<circle cx="544.96" cy="113.77" r="3.5" fill="#2563eb"/>
<circle cx="545.63" cy="102.13" r="3.5" fill="#2563eb"/>
<circle cx="546.31" cy="152.00" r="3.5" fill="#2563eb"/>
<circle cx="546.98" cy="158.43" r="3.5" fill="#2563eb"/>
<circle cx="547.65" cy="127.43" r="3.5" fill="#2563eb"/>
<circle cx="548.32" cy="105.97" r="3.5" fill="#2563eb"/>
<circle cx="549.00" cy="110.71" r="3.5" fill="#2563eb"/>
<circle cx="549.67" cy="138.73" r="3.5" fill="#2563eb"/>
<circle cx="550.34" cy="104.79" r="3.5" fill="#2563eb"/>
<circle cx="551.02" cy="139.21" r="3.5" fill="#2563eb"/>
<circle cx="551.69" cy="105.94" r="3.5" fill="#2563eb"/>
<circle cx="552.36" cy="68.24" r="3.5" fill="#2563eb"/>
<circle cx="553.03" cy="127.96" r="3.5" fill="#2563eb"/>
<circle cx="553.71" cy="83.77" r="3.5" fill="#2563eb"/>
<circle cx="554.38" cy="106.31" r="3.5" fill="#2563eb"/>
<circle cx="555.05" cy="148.24" r="3.5" fill="#2563eb"/>
<circle cx="555.72" cy="79.44" r="3.5" fill="#2563eb"/>
<circle cx="556.40" cy="106.96" r="3.5" fill="#2563eb"/>
<circle cx="557.07" cy="94.65" r="3.5" fill="#2563eb"/>
<circle cx="557.74" cy="118.04" r="3.5" fill="#2563eb"/>
<circle cx="558.41" cy="115.75" r="3.5" fill="#2563eb"/>
<circle cx="559.09" cy="121.18" r="3.5" fill="#2563eb"/>
<circle cx="559.76" cy="74.08" r="3.5" fill="#2563eb"/>
<circle cx="560.43" cy="111.82" r="3.5" fill="#2563eb"/>
<circle cx="561.11" cy="114.87" r="3.5" fill="#2563eb"/>
<circle cx="561.78" cy="101.36" r="3.5" fill="#2563eb"/>
<circle cx="562.45" cy="124.07" r="3.5" fill="#2563eb"/>
<circle cx="563.12" cy="88.24" r="3.5" fill="#2563eb"/>
<circle cx="563.80" cy="93.74" r="3.5" fill="#2563eb"/>
<circle cx="564.47" cy="139.10" r="3.5" fill="#2563eb"/>
<circle cx="565.14" cy="111.46" r="3.5" fill="#2563eb"/>
<circle cx="565.81" cy="104.27" r="3.5" fill="#2563eb"/>
<circle cx="566.49" cy="160.39" r="3.5" fill="#2563eb"/>
<circle cx="567.16" cy="135.32" r="3.5" fill="#2563eb"/>
<circle cx="567.83" cy="94.60" r="3.5" fill="#2563eb"/>
<circle cx="568.50" cy="119.29" r="3.5" fill="#2563eb"/>
<circle cx="569.18" cy="111.09" r="3.5" fill="#2563eb"/>
<circle cx="569.85" cy="107.08" r="3.5" fill="#2563eb"/>
<circle cx="570.52" cy="101.30" r="3.5" fill="#2563eb"/>
<circle cx="571.20" cy="90.94" r="3.5" fill="#2563eb"/>
<circle cx="571.87" cy="106.01" r="3.5" fill="#2563eb"/>
<circle cx="572.54" cy="131.31" r="3.5" fill="#2563eb"/>
<circle cx="573.21" cy="124.07" r="3.5" fill="#2563eb"/>
<circle cx="573.89" cy="116.09" r="3.5" fill="#2563eb"/>
<circle cx="574.56" cy="169.27" r="3.5" fill="#2563eb"/>
<circle cx="575.23" cy="94.98" r="3.5" fill="#2563eb"/>
<circle cx="575.90" cy="127.40" r="3.5" fill="#2563eb"/>
<circle cx="576.58" cy="156.68" r="3.5" fill="#2563eb"/>
<circle cx="577.25" cy="105.90" r="3.5" fill="#2563eb"/>
<circle cx="577.92" cy="125.07" r="3.5" fill="#2563eb"/>
<circle cx="578.59" cy="136.62" r="3.5" fill="#2563eb"/>
<circle cx="579.27" cy="146.40" r="3.5" fill="#2563eb"/>
<circle cx="579.94" cy="137.34" r="3.5" fill="#2563eb"/>
<circle cx="580.61" cy="144.21" r="3.5" fill="#2563eb"/>
<circle cx="581.29" cy="131.28" r="3.5" fill="#2563eb"/>
<circle cx="581.96" cy="91.95" r="3.5" fill="#2563eb"/>
<circle cx="582.63" cy="124.23" r="3.5" fill="#2563eb"/>
<circle cx="583.30" cy="139.94" r="3.5" fill="#2563eb"/>
<circle cx="583.98" cy="101.02" r="3.5" fill="#2563eb"/>
<circle cx="584.65" cy="164.57" r="3.5" fill="#2563eb"/>
<circle cx="585.32" cy="101.18" r="3.5" fill="#2563eb"/>
<circle cx="585.99" cy="114.62" r="3.5" fill="#2563eb"/>
<circle cx="586.67" cy="72.75" r="3.5" fill="#2563eb"/>
<circle cx="587.34" cy="91.40" r="3.5" fill="#2563eb"/>
<circle cx="588.01" cy="128.79" r="3.5" fill="#2563eb"/>
<circle cx="588.68" cy="141.77" r="3.5" fill="#2563eb"/>
<circle cx="589.36" cy="141.53" r="3.5" fill="#2563eb"/>
<circle cx="590.03" cy="91.54" r="3.5" fill="#2563eb"/>
<circle cx="590.70" cy="119.49" r="3.5" fill="#2563eb"/>
<circle cx="591.38" cy="99.82" r="3.5" fill="#2563eb"/>
<circle cx="592.05" cy="126.29" r="3.5" fill="#2563eb"/>
<circle cx="592.72" cy="91.30" r="3.5" fill="#2563eb"/>
<circle cx="593.39" cy="133.92" r="3.5" fill="#2563eb"/>
<circle cx="594.07" cy="132.74" r="3.5" fill="#2563eb"/>
<circle cx="594.74" cy="153.92" r="3.5" fill="#2563eb"/>
<circle cx="595.41" cy="167.15" r="3.5" fill="#2563eb"/>
<circle cx="596.08" cy="157.78" r="3.5" fill="#2563eb"/>
<circle cx="596.76" cy="139.98" r="3.5" fill="#2563eb"/>
<circle cx="597.43" cy="157.16" r="3.5" fill="#2563eb"/>
<circle cx="598.10" cy="145.90" r="3.5" fill="#2563eb"/>
<circle cx="598.77" cy="143.73" r="3.5" fill="#2563eb"/>
<circle cx="599.45" cy="107.83" r="3.5" fill="#2563eb"/>
<circle cx="600.12" cy="158.72" r="3.5" fill="#2563eb"/>
<circle cx="600.79" cy="110.68" r="3.5" fill="#2563eb"/>
<circle cx="601.47" cy="162.07" r="3.5" fill="#2563eb"/>
<circle cx="602.14" cy="99.77" r="3.5" fill="#2563eb"/>
<circle cx="602.81" cy="111.52" r="3.5" fill="#2563eb"/>
<circle cx="603.48" cy="118.27" r="3.5" fill="#2563eb"/>
<circle cx="604.16" cy="106.21" r="3.5" fill="#2563eb"/>
<circle cx="604.83" cy="158.56" r="3.5" fill="#2563eb"/>
<circle cx="605.50" cy="138.96" r="3.5" fill="#2563eb"/>
<circle cx="606.17" cy="132.46" r="3.5" fill="#2563eb"/>
<circle cx="606.85" cy="189.18" r="3.5" fill="#2563eb"/>
<circle cx="607.52" cy="110.71" r="3.5" fill="#2563eb"/>
<circle cx="608.19" cy="146.50" r="3.5" fill="#2563eb"/>
<circle cx="608.86" cy="114.55" r="3.5" fill="#2563eb"/>
<circle cx="609.54" cy="140.18" r="3.5" fill="#2563eb"/>
<circle cx="610.21" cy="149.80" r="3.5" fill="#2563eb"/>
<circle cx="610.88" cy="130.00" r="3.5" fill="#2563eb"/>
<circle cx="611.56" cy="106.25" r="3.5" fill="#2563eb"/>
<circle cx="612.23" cy="140.79" r="3.5" fill="#2563eb"/>
<circle cx="612.90" cy="155.86" r="3.5" fill="#2563eb"/>
<circle cx="613.57" cy="124.13" r="3.5" fill="#2563eb"/>
<circle cx="614.25" cy="134.06" r="3.5" fill="#2563eb"/>
<circle cx="614.92" cy="125.36" r="3.5" fill="#2563eb"/>
<circle cx="615.59" cy="115.76" r="3.5" fill="#2563eb"/>
<circle cx="616.26" cy="138.89" r="3.5" fill="#2563eb"/>
<circle cx="616.94" cy="184.16" r="3.5" fill="#2563eb"/>
<circle cx="617.61" cy="178.27" r="3.5" fill="#2563eb"/>
<circle cx="618.28" cy="156.08" r="3.5" fill="#2563eb"/>
<circle cx="618.95" cy="107.76" r="3.5" fill="#2563eb"/>
<circle cx="619.63" cy="178.11" r="3.5" fill="#2563eb"/>
<circle cx="620.30" cy="187.43" r="3.5" fill="#2563eb"/>
<circle cx="620.97" cy="127.40" r="3.5" fill="#2563eb"/>
<circle cx="621.65" cy="155.26" r="3.5" fill="#2563eb"/>
<circle cx="622.32" cy="105.81" r="3.5" fill="#2563eb"/>
<circle cx="622.99" cy="137.94" r="3.5" fill="#2563eb"/>
<circle cx="623.66" cy="133.50" r="3.5" fill="#2563eb"/>
<circle cx="624.34" cy="175.31" r="3.5" fill="#2563eb"/>
<circle cx="625.01" cy="136.24" r="3.5" fill="#2563eb"/>
<circle cx="625.68" cy="78.93" r="3.5" fill="#2563eb"/>
<circle cx="626.35" cy="165.36" r="3.5" fill="#2563eb"/>
<circle cx="627.03" cy="175.69" r="3.5" fill="#2563eb"/>
<circle cx="627.70" cy="139.06" r="3.5" fill="#2563eb"/>
<circle cx="628.37" cy="146.22" r="3.5" fill="#2563eb"/>
<circle cx="629.05" cy="151.05" r="3.5" fill="#2563eb"/>
<circle cx="629.72" cy="99.43" r="3.5" fill="#2563eb"/>
<circle cx="630.39" cy="169.10" r="3.5" fill="#2563eb"/>
<circle cx="631.06" cy="168.84" r="3.5" fill="#2563eb"/>
<circle cx="631.74" cy="133.48" r="3.5" fill="#2563eb"/>
<circle cx="632.41" cy="141.96" r="3.5" fill="#2563eb"/>
<circle cx="633.08" cy="143.10" r="3.5" fill="#2563eb"/>
<circle cx="633.75" cy="166.70" r="3.5" fill="#2563eb"/>
<circle cx="634.43" cy="146.70" r="3.5" fill="#2563eb"/>
<circle cx="635.10" cy="128.97" r="3.5" fill="#2563eb"/>
<circle cx="635.77" cy="168.93" r="3.5" fill="#2563eb"/>
<circle cx="636.44" cy="107.92" r="3.5" fill="#2563eb"/>
<circle cx="637.12" cy="129.76" r="3.5" fill="#2563eb"/>
<circle cx="637.79" cy="167.26" r="3.5" fill="#2563eb"/>
<circle cx="638.46" cy="136.39" r="3.5" fill="#2563eb"/>
<circle cx="639.14" cy="153.43" r="3.5" fill="#2563eb"/>
<circle cx="639.81" cy="113.95" r="3.5" fill="#2563eb"/>
<circle cx="640.48" cy="164.42" r="3.5" fill="#2563eb"/>
<circle cx="641.15" cy="156.21" r="3.5" fill="#2563eb"/>
<circle cx="641.83" cy="144.20" r="3.5" fill="#2563eb"/>
<circle cx="642.50" cy="154.21" r="3.5" fill="#2563eb"/>
<circle cx="643.17" cy="129.04" r="3.5" fill="#2563eb"/>
<circle cx="643.84" cy="146.60" r="3.5" fill="#2563eb"/>
<circle cx="644.52" cy="124.90" r="3.5" fill="#2563eb"/>
<circle cx="645.19" cy="134.67" r="3.5" fill="#2563eb"/>
<circle cx="645.86" cy="172.23" r="3.5" fill="#2563eb"/>
<circle cx="646.53" cy="173.83" r="3.5" fill="#2563eb"/>
<circle cx="647.21" cy="157.75" r="3.5" fill="#2563eb"/>
<circle cx="647.88" cy="152.29" r="3.5" fill="#2563eb"/>
<circle cx="648.55" cy="170.94" r="3.5" fill="#2563eb"/>
<circle cx="649.23" cy="162.78" r="3.5" fill="#2563eb"/>
<circle cx="649.90" cy="109.90" r="3.5" fill="#2563eb"/>
<circle cx="650.57" cy="173.98" r="3.5" fill="#2563eb"/>
<circle cx="651.24" cy="187.02" r="3.5" fill="#2563eb"/>
<circle cx="651.92" cy="176.53" r="3.5" fill="#2563eb"/>
<circle cx="652.59" cy="155.96" r="3.5" fill="#2563eb"/>
<circle cx="653.26" cy="159.49" r="3.5" fill="#2563eb"/>
<circle cx="653.93" cy="145.53" r="3.5" fill="#2563eb"/>
<circle cx="654.61" cy="133.82" r="3.5" fill="#2563eb"/>
<circle cx="655.28" cy="151.51" r="3.5" fill="#2563eb"/>
<circle cx="655.95" cy="123.73" r="3.5" fill="#2563eb"/>
<circle cx="656.62" cy="132.81" r="3.5" fill="#2563eb"/>
<circle cx="657.30" cy="172.27" r="3.5" fill="#2563eb"/>
<circle cx="657.97" cy="119.16" r="3.5" fill="#2563eb"/>
<circle cx="658.64" cy="111.97" r="3.5" fill="#2563eb"/>
<circle cx="659.32" cy="184.23" r="3.5" fill="#2563eb"/>
<circle cx="659.99" cy="116.28" r="3.5" fill="#2563eb"/>
<circle cx="660.66" cy="129.53" r="3.5" fill="#2563eb"/>
<circle cx="661.33" cy="213.97" r="3.5" fill="#2563eb"/>
<circle cx="662.01" cy="109.89" r="3.5" fill="#2563eb"/>
<circle cx="662.68" cy="154.42" r="3.5" fill="#2563eb"/>
<circle cx="663.35" cy="106.78" r="3.5" fill="#2563eb"/>
<circle cx="664.02" cy="137.11" r="3.5" fill="#2563eb"/>
<circle cx="664.70" cy="160.61" r="3.5" fill="#2563eb"/>
<circle cx="665.37" cy="127.02" r="3.5" fill="#2563eb"/>
<circle cx="666.04" cy="155.94" r="3.5" fill="#2563eb"/>
<circle cx="666.71" cy="145.23" r="3.5" fill="#2563eb"/>
<circle cx="667.39" cy="142.02" r="3.5" fill="#2563eb"/>
<circle cx="668.06" cy="133.82" r="3.5" fill="#2563eb"/>
<circle cx="668.73" cy="137.12" r="3.5" fill="#2563eb"/>
<circle cx="669.41" cy="168.33" r="3.5" fill="#2563eb"/>
<circle cx="670.08" cy="169.85" r="3.5" fill="#2563eb"/>
<circle cx="670.75" cy="145.39" r="3.5" fill="#2563eb"/>
<circle cx="671.42" cy="171.68" r="3.5" fill="#2563eb"/>
<circle cx="672.10" cy="152.31" r="3.5" fill="#2563eb"/>
<circle cx="672.77" cy="139.85" r="3.5" fill="#2563eb"/>
<circle cx="673.44" cy="148.59" r="3.5" fill="#2563eb"/>
<circle cx="674.11" cy="114.14" r="3.5" fill="#2563eb"/>
<circle cx="674.79" cy="166.25" r="3.5" fill="#2563eb"/>
<circle cx="675.46" cy="102.82" r="3.5" fill="#2563eb"/>
<circle cx="676.13" cy="122.70" r="3.5" fill="#2563eb"/>
<circle cx="676.80" cy="127.84" r="3.5" fill="#2563eb"/>
<circle cx="677.48" cy="93.71" r="3.5" fill="#2563eb"/>
<circle cx="678.15" cy="177.53" r="3.5" fill="#2563eb"/>
<circle cx="678.82" cy="176.15" r="3.5" fill="#2563eb"/>
<circle cx="679.50" cy="163.72" r="3.5" fill="#2563eb"/>
<circle cx="680.17" cy="128.39" r="3.5" fill="#2563eb"/>
<circle cx="680.84" cy="185.40" r="3.5" fill="#2563eb"/>
<circle cx="681.51" cy="105.40" r="3.5" fill="#2563eb"/>
<circle cx="682.19" cy="156.87" r="3.5" fill="#2563eb"/>
<circle cx="682.86" cy="133.64" r="3.5" fill="#2563eb"/>
<circle cx="683.53" cy="178.22" r="3.5" fill="#2563eb"/>
<circle cx="684.20" cy="147.44" r="3.5" fill="#2563eb"/>
<circle cx="684.88" cy="145.88" r="3.5" fill="#2563eb"/>
<circle cx="685.55" cy="159.07" r="3.5" fill="#2563eb"/>
<circle cx="686.22" cy="139.98" r="3.5" fill="#2563eb"/>
<circle cx="686.89" cy="130.07" r="3.5" fill="#2563eb"/>
<circle cx="687.57" cy="178.75" r="3.5" fill="#2563eb"/>
<circle cx="688.24" cy="229.76" r="3.5" fill="#2563eb"/>
<circle cx="688.91" cy="178.84" r="3.5" fill="#2563eb"/>
<circle cx="689.59" cy="178.99" r="3.5" fill="#2563eb"/>
<circle cx="690.26" cy="171.20" r="3.5" fill="#2563eb"/>
<circle cx="690.93" cy="159.92" r="3.5" fill="#2563eb"/>
<circle cx="691.60" cy="153.31" r="3.5" fill="#2563eb"/>
<circle cx="692.28" cy="156.55" r="3.5" fill="#2563eb"/>
<circle cx="692.95" cy="175.17" r="3.5" fill="#2563eb"/>
<circle cx="693.62" cy="145.58" r="3.5" fill="#2563eb"/>
<circle cx="694.29" cy="175.01" r="3.5" fill="#2563eb"/>
<circle cx="694.97" cy="165.28" r="3.5" fill="#2563eb"/>
<circle cx="695.64" cy="217.03" r="3.5" fill="#2563eb"/>
<circle cx="696.31" cy="156.09" r="3.5" fill="#2563eb"/>
<circle cx="696.98" cy="155.84" r="3.5" fill="#2563eb"/>
<circle cx="697.66" cy="193.16" r="3.5" fill="#2563eb"/>
<circle cx="698.33" cy="175.61" r="3.5" fill="#2563eb"/>
<circle cx="699.00" cy="173.86" r="3.5" fill="#2563eb"/>
<circle cx="699.68" cy="171.91" r="3.5" fill="#2563eb"/>
<circle cx="700.35" cy="169.53" r="3.5" fill="#2563eb"/>
<circle cx="701.02" cy="171.37" r="3.5" fill="#2563eb"/>
<circle cx="701.69" cy="179.95" r="3.5" fill="#2563eb"/>
<circle cx="702.37" cy="180.95" r="3.5" fill="#2563eb"/>
<circle cx="703.04" cy="208.01" r="3.5" fill="#2563eb"/>
<circle cx="703.71" cy="173.01" r="3.5" fill="#2563eb"/>
<circle cx="704.38" cy="160.68" r="3.5" fill="#2563eb"/>
<circle cx="705.06" cy="163.61" r="3.5" fill="#2563eb"/>
<circle cx="705.73" cy="162.13" r="3.5" fill="#2563eb"/>
<circle cx="706.40" cy="152.17" r="3.5" fill="#2563eb"/>
<circle cx="707.08" cy="199.01" r="3.5" fill="#2563eb"/>
<circle cx="707.75" cy="140.46" r="3.5" fill="#2563eb"/>
<circle cx="708.42" cy="171.23" r="3.5" fill="#2563eb"/>
<circle cx="709.09" cy="176.05" r="3.5" fill="#2563eb"/>
<circle cx="709.77" cy="184.03" r="3.5" fill="#2563eb"/>
<circle cx="710.44" cy="219.24" r="3.5" fill="#2563eb"/>
<circle cx="711.11" cy="139.16" r="3.5" fill="#2563eb"/>
<circle cx="711.78" cy="107.14" r="3.5" fill="#2563eb"/>
<circle cx="712.46" cy="140.31" r="3.5" fill="#2563eb"/>
<circle cx="713.13" cy="135.08" r="3.5" fill="#2563eb"/>
<circle cx="713.80" cy="168.95" r="3.5" fill="#2563eb"/>
<circle cx="714.47" cy="165.65" r="3.5" fill="#2563eb"/>
<circle cx="715.15" cy="188.08" r="3.5" fill="#2563eb"/>
<circle cx="715.82" cy="142.33" r="3.5" fill="#2563eb"/>
<circle cx="716.49" cy="163.77" r="3.5" fill="#2563eb"/>
<circle cx="717.17" cy="148.33" r="3.5" fill="#2563eb"/>
<circle cx="717.84" cy="153.89" r="3.5" fill="#2563eb"/>
<circle cx="718.51" cy="170.48" r="3.5" fill="#2563eb"/>
<circle cx="719.18" cy="118.25" r="3.5" fill="#2563eb"/>
<circle cx="719.86" cy="204.65" r="3.5" fill="#2563eb"/>
<circle cx="720.53" cy="175.01" r="3.5" fill="#2563eb"/>
<circle cx="721.20" cy="172.57" r="3.5" fill="#2563eb"/>
<circle cx="721.87" cy="160.78" r="3.5" fill="#2563eb"/>
<circle cx="722.55" cy="211.99" r="3.5" fill="#2563eb"/>
<circle cx="723.22" cy="200.44" r="3.5" fill="#2563eb"/>
<circle cx="723.89" cy="157.23" r="3.5" fill="#2563eb"/>
<circle cx="724.56" cy="165.21" r="3.5" fill="#2563eb"/>
<circle cx="725.24" cy="145.62" r="3.5" fill="#2563eb"/>
<circle cx="725.91" cy="161.13" r="3.5" fill="#2563eb"/>
<circle cx="726.58" cy="170.83" r="3.5" fill="#2563eb"/>
<circle cx="727.26" cy="163.03" r="3.5" fill="#2563eb"/>
<circle cx="727.93" cy="187.66" r="3.5" fill="#2563eb"/>
<circle cx="728.60" cy="129.90" r="3.5" fill="#2563eb"/>
<circle cx="729.27" cy="155.15" r="3.5" fill="#2563eb"/>
<circle cx="729.95" cy="187.67" r="3.5" fill="#2563eb"/>
<circle cx="730.62" cy="170.26" r="3.5" fill="#2563eb"/>
<circle cx="731.29" cy="193.01" r="3.5" fill="#2563eb"/>
<circle cx="731.96" cy="144.22" r="3.5" fill="#2563eb"/>
<circle cx="732.64" cy="179.71" r="3.5" fill="#2563eb"/>
<circle cx="733.31" cy="235.13" r="3.5" fill="#2563eb"/>
<circle cx="733.98" cy="114.53" r="3.5" fill="#2563eb"/>
<circle cx="734.65" cy="258.00" r="3.5" fill="#2563eb"/>
<circle cx="735.33" cy="151.50" r="3.5" fill="#2563eb"/>
<circle cx="736.00" cy="201.53" r="3.5" fill="#2563eb"/>
</svg>
